<svg xmlns="http://www.w3.org/2000/svg" width="189" height="189"><g fill="none" fill-rule="evenodd"><path fill="#0D57E2" d="M189 1.214c0-.67-.544-1.214-1.215-1.214H1.215C.545 0 0 .543 0 1.214v37.257l17.562 106.203c0 .732.544 1.326 1.215 1.326h151.795c.67 0 1.215-.594 1.215-1.326L189 26.048V1.214z"/><path fill="#031F48" d="M127.773 33.86c.533-.338 1.08-.66 1.643-.961.256-.138.46-.357.541-.61a.671.671 0 00.021-.408.698.698 0 00-.14-.38c-.162-.217-.403-.41-.703-.468-.305-.06-.635-.044-.908.103-.562.302-1.11.623-1.643.962a.847.847 0 00-.33.263.735.735 0 00-.211.347.668.668 0 00-.021.407.695.695 0 00.14.38c.162.217.403.41.703.469l.313.036c.213 0 .41-.047.595-.14m-25.241 97.975c-.845-10.593 9.237-17.735 16.55-23.786 3.685-3.05 7.315-6.333 9.839-10.408 2.558-4.13 3.606-8.86 2.826-13.643-.731-4.481-3.13-8.895-6.746-11.776-2.942-2.344-8.34-3.994-11.317-.795-3.142 3.375-.2 8.459 3.835 9.436 4.534 1.099 8.326-2.99 9.236-6.972 1.391-6.088-2.679-11.534-5.484-16.578-1.512-2.717-2.723-5.592-2.664-8.74.06-3.188 1.321-6.167 3.099-8.793.884-1.306-1.261-2.523-2.14-1.226-2.823 4.171-4.22 9.212-2.935 14.151 1.275 4.9 4.726 8.817 6.68 13.424 1.59 3.747 2.08 8.944-1.776 11.609-1.538 1.061-3.393 1.165-4.933.053-1.269-.916-2.336-2.686-1.487-4.195.847-1.501 2.79-1.683 4.339-1.364 1.902.39 3.526 1.354 4.9 2.68 3.043 2.938 4.894 7.026 5.162 11.199.594 9.26-6.767 15.82-13.42 21.233-7.558 6.148-16.895 13.794-16.041 24.49.123 1.548 2.602 1.561 2.477 0M91.032 22c.311-.044.623-.074.936-.088a.602.602 0 00.397-.126.806.806 0 00.332-.3c.1-.133.172-.289.213-.47.065-.173.095-.36.09-.56l-.038-.387a1.65 1.65 0 00-.265-.643l-.209-.227a.809.809 0 00-.52-.199 9.808 9.808 0 00-.936.088.596.596 0 00-.397.126.799.799 0 00-.332.3c-.1.132-.172.289-.213.469a1.48 1.48 0 00-.09.561l.038.387c.048.247.137.461.265.643l.209.227c.16.132.334.198.52.199M70.299 123.835c-.506-5.734.952-11.344 4.284-16.004a22.5 22.5 0 015.313-5.29c2.188-1.54 4.624-2.648 6.976-3.892 2.313-1.222 4.607-2.618 6.408-4.566 1.466-1.587 2.583-3.45 3.381-5.466 1.583-3.997 1.778-8.628.502-12.74-1.467-4.73-4.85-8.168-8.97-10.657-4.296-2.594-9.102-4.185-13.315-6.932-4.136-2.696-7.732-6.724-7.474-12.04.254-5.242 4.303-9.632 9.434-10.22 1.39-.158 3.209-.158 4.315.858.68.624 1.17 1.959.208 2.554-.725.449-1.85.233-2.496-.272-.998-.78-1.159-2.287-1.084-3.464.353-5.556 4.994-10.315 9.723-12.485 1.4-.642.186-2.738-1.205-2.1-4.858 2.229-8.831 6.526-10.394 11.75-.757 2.53-.927 5.867 1.104 7.867 1.508 1.483 4.171 1.887 5.895.563 2.208-1.695 1.502-4.99-.518-6.509-2.288-1.72-5.703-1.475-8.276-.631-5.514 1.81-9.29 7.135-9.103 13.059.181 5.793 4.095 10.191 8.665 13.17 4.738 3.088 10.244 4.718 14.897 7.955 4.189 2.912 6.83 7.252 7.023 12.464.179 4.802-1.608 9.659-5.275 12.776-2.306 1.959-5.13 3.193-7.78 4.58-2.575 1.346-4.997 2.915-7.085 4.974-4.18 4.123-6.844 9.646-7.503 15.527a25.965 25.965 0 00-.04 5.17c.137 1.547 2.527 1.562 2.39 0m1.575 8.433c-.273-.6-.523-1.215-.75-1.842l.1.275a25.159 25.159 0 01-.29-.853c-.093-.288-.218-.529-.451-.689-.21-.144-.52-.206-.756-.116a1.03 1.03 0 00-.587.53c-.117.26-.19.6-.099.887a27.752 27.752 0 001.138 2.97c.242.533.91.742 1.343.414.46-.35.61-1.007.352-1.576M147 85.007c.852.839 2.62 2.455 4.984 3.993a7.003 7.003 0 01-1.244-3.989c0-1.492.469-2.873 1.26-4.011a32.707 32.707 0 00-5 4.007M139.1 147c.146-.207.304-.407.49-.59.388-.381.86-.703 1.41-.971a4.999 4.999 0 01-1.258-.924c-.016-.017-.027-.038-.044-.055-1.339-.316-3.27-.46-4.165-.46H130v2.62h5.533c.91 0 2.603.157 3.566.38"/><path fill="#031F48" d="M169.389 148.164c-2.69-8.942-10.098-9.208-11.582-9.151-.274.008-.472.013-.669.015-5.634.05-8.933.052-9.805.007-4.073-.214-5.83.596-6.59 1.312-.5.471-.743 1.07-.743 1.826 0 1.092.297 1.913.908 2.508 1.065 1.04 2.846 1.12 3.566 1.107l.416-.008c.466-.009.933-.018 1.4-.018l11.263.052c.043 0 .08.019.121.026.065.01.132.014.191.039.042.018.073.05.111.073.05.032.104.057.146.1.033.032.052.076.08.114.032.046.071.088.093.14.02.045.02.097.031.145.012.054.034.105.034.163v.011c0 .054-.02.1-.031.151-.01.053-.012.108-.033.157-.02.047-.056.085-.085.127-.029.043-.05.092-.087.129-.037.036-.085.058-.128.087-.043.03-.08.065-.129.086-.051.022-.11.024-.166.035-.049.01-.093.03-.145.03-5.898.053-9.338.056-10.224.01-4.07-.214-5.83.598-6.59 1.314-.5.47-.742 1.068-.742 1.825 0 1.093.297 1.913.908 2.509 1.065 1.04 2.846 1.117 3.566 1.107l.416-.008c.466-.01.933-.019 1.4-.019l11.263.053c.043 0 .08.018.121.025.065.01.132.015.191.04.042.017.073.049.111.073.05.031.104.057.146.099.033.033.052.077.08.115.032.046.071.087.093.14.02.044.02.096.031.145.012.054.034.104.034.162v.011c0 .054-.02.101-.031.152-.01.052-.012.108-.033.156-.02.048-.056.085-.085.128-.029.043-.05.091-.087.128-.037.037-.085.059-.128.088-.043.029-.08.065-.129.085-.051.022-.11.024-.166.035-.049.01-.093.03-.145.03-5.9.053-9.34.057-10.224.011-4.07-.215-5.83.597-6.59 1.313-.5.471-.742 1.068-.742 1.825 0 1.093.297 1.914.908 2.509 1.065 1.04 2.846 1.115 3.566 1.107l.416-.008c.466-.009.933-.018 1.4-.018l11.263.052c.043 0 .08.019.121.026.065.01.132.014.191.039.042.017.073.05.111.073.05.032.104.058.146.1.033.032.052.076.08.114.032.047.071.088.093.14.02.045.02.097.031.145.012.054.034.105.034.163v.011c0 .053-.02.1-.031.151-.01.053-.012.108-.033.157-.02.048-.056.085-.085.127-.029.043-.05.092-.087.129-.037.036-.085.058-.128.087-.043.029-.08.065-.129.086-.051.022-.11.024-.166.035-.049.01-.093.03-.145.03-2.066.02-4.042.01-5.707.003-2.077-.008-3.716-.016-4.307.037-3.01.264-4.537 1.31-4.537 3.109 0 1.093.297 1.913.907 2.508 1.067 1.04 2.844 1.12 3.567 1.108l.415-.008c.467-.01.934-.02 1.401-.02h22.687c.137-6.552-.47-15.742-2.593-22.807M128 142H95v17.44c0 9.13 7.402 16.56 16.5 16.56 9.098 0 16.5-7.43 16.5-16.56V142zm35-58c0-2.757-2.243-5-5-5s-5 2.243-5 5 2.243 5 5 5 5-2.243 5-5"/><path fill="#031F48" d="M158 78.676c3.415.269 6.11 3.001 6.11 6.327 0 3.318-2.682 6.046-6.086 6.326 1.456.41 2.99.671 4.579.671 7.307 0 13.562-5.287 15.397-7-1.838-1.711-8.103-7-15.397-7-1.598 0-3.14.263-4.603.676m-16 84.374c-.721-.193-1.438-.49-2.04-.948-.042-.031-.07-.07-.109-.102a9.036 9.036 0 01-4.173 1.01h-5.985A12.312 12.312 0 01129 165h6.678c2.094 0 4.12-.508 5.859-1.47.223-.123.378-.293.463-.48M36.01 89A32.901 32.901 0 0041 85.003 32.92 32.92 0 0036 81a7.012 7.012 0 011.255 4.006c0 1.484-.463 2.86-1.246 3.994m-7.099 31a17.012 17.012 0 004.09-5.292c-2.154-.751-7.985-2.92-12-5.708.88 2.806 3.032 7.65 7.91 11m-3.62 17.245c-3.709-1.195-9.893-4.378-9.516-12.245H1v62l24.219-.024L39 171.518H16.275a.823.823 0 01-.314-.064c-.023-.01-.04-.03-.062-.041a.847.847 0 01-.195-.132c-.023-.023-.036-.055-.057-.081-.043-.055-.089-.11-.117-.175-.014-.032-.014-.069-.024-.102-.019-.065-.043-.127-.046-.198-.1-3.3-.207-14.811 2.656-24.408 1.528-5.123 4.442-7.74 7.174-9.072m24.917 7.294a4.854 4.854 0 01-1.207.966c.528.28.981.617 1.353 1.015.14.15.25.316.366.48.976-.153 2.227-.259 2.972-.259H59V144h-5.309c-.496 0-1.978.077-3.299.284-.065.082-.114.177-.185.255M26 84c0 2.757 2.243 5 5 5s5-2.243 5-5-2.243-5-5-5-5 2.243-5 5m67 58H60v17.44c0 9.13 7.402 16.56 16.5 16.56 9.098 0 16.5-7.43 16.5-16.56V142z"/><path fill="#031F48" d="M49 158.98c0-.757-.243-1.354-.743-1.824-.76-.717-2.524-1.525-6.59-1.314-.884.046-4.323.043-10.223-.01-.051 0-.096-.021-.145-.03-.056-.012-.114-.014-.166-.036-.048-.02-.086-.057-.13-.086-.042-.03-.09-.05-.126-.087-.038-.037-.06-.086-.089-.13-.028-.042-.064-.079-.084-.126-.02-.049-.022-.104-.033-.158-.01-.05-.03-.096-.031-.15l.001-.005-.001-.006c0-.057.022-.107.034-.16.01-.05.012-.102.031-.147.022-.052.06-.093.093-.139.027-.038.047-.083.08-.116.041-.041.095-.067.145-.098.038-.025.07-.057.112-.075.059-.024.126-.028.19-.039.042-.006.08-.025.122-.025l11.259-.053c.471 0 .938.01 1.405.019l.415.008c.713.01 2.5-.068 3.566-1.107.61-.595.908-1.416.908-2.51 0-.756-.243-1.353-.743-1.824-.76-.716-2.524-1.525-6.59-1.313-.884.045-4.323.043-10.223-.01-.051 0-.096-.021-.145-.031-.056-.01-.114-.013-.166-.034-.048-.021-.086-.058-.13-.087-.042-.03-.09-.05-.126-.087-.038-.037-.06-.086-.089-.13-.028-.042-.064-.079-.084-.126-.02-.048-.022-.105-.033-.158-.01-.05-.03-.096-.031-.15l.001-.005-.001-.006c0-.057.022-.107.034-.16.01-.05.012-.102.031-.147.022-.052.06-.093.093-.139.027-.038.047-.083.08-.116.041-.041.095-.067.145-.098.038-.024.07-.057.112-.075.059-.024.126-.028.19-.039.042-.006.08-.025.122-.025l11.259-.053c.471 0 .938.01 1.405.02l.415.007c.713.013 2.5-.068 3.566-1.107.61-.595.908-1.416.908-2.508 0-.758-.243-1.355-.744-1.826-.76-.716-2.518-1.534-6.589-1.312-.87.044-4.17.043-9.806-.007a29.03 29.03 0 01-.59-.013c-1.533-.052-8.97.206-11.66 9.149-2.124 7.062-2.73 16.252-2.593 22.806h22.687c.468 0 .934.01 1.401.019l.416.008c.715.012 2.5-.068 3.567-1.107.61-.596.907-1.416.907-2.509 0-1.798-1.527-2.845-4.537-3.109-.593-.052-2.231-.044-4.309-.036-1.663.007-3.641.015-5.706-.003-.051 0-.096-.021-.145-.03-.056-.012-.114-.014-.166-.036-.048-.02-.086-.057-.13-.086-.042-.029-.09-.05-.126-.087-.038-.037-.06-.086-.089-.13-.028-.042-.064-.078-.084-.126-.02-.049-.022-.105-.033-.158-.01-.05-.03-.096-.031-.15l.001-.005-.001-.006c.003-.401.277-.712.686-.774.042-.007.079-.025.121-.025l11.259-.053c.471 0 .938.01 1.405.019l.415.008c.713.008 2.5-.068 3.566-1.107.61-.595.908-1.416.908-2.509M30.981 91.33c-3.404-.28-6.087-3.009-6.087-6.327 0-3.324 2.692-6.056 6.106-6.327-1.462-.413-3.003-.676-4.599-.676-7.309 0-13.566 5.287-15.401 7 1.838 1.711 8.106 7 15.401 7 1.59 0 3.124-.26 4.58-.67"/><path fill="#031F48" d="M59.304 162.886h-6.017a8.735 8.735 0 01-3.82-.886c-.733.553-1.614.876-2.467 1.06.09.145.223.277.397.379 1.749 1.021 3.785 1.561 5.89 1.561H60a13.31 13.31 0 01-.696-2.114M9.547 84.128c.31-.338 7.67-8.278 16.953-8.278s16.642 7.94 16.951 8.278a.803.803 0 010 1.086c-.309.338-7.668 8.277-16.951 8.277-9.284 0-16.644-7.94-16.953-8.277a.805.805 0 010-1.086M42.984 38.04C35.388 32.307 21.224 32.683 2 39.12V124h15.599a17.01 17.01 0 0010.009-3.257c-7.346-5.38-8.573-13.742-8.623-14.11a.808.808 0 01.437-.829.818.818 0 01.931.138c3.467 3.303 10.92 6.124 13.23 6.947a16.717 16.717 0 001.063-5.829c0-.446.363-.807.812-.807h8.585V51.506c-4.548.538-10.75 2.35-14.425 7.936-6.91 10.509-21.098 5.749-21.241 5.698a.806.806 0 01-.5-1.028.812.812 0 011.034-.497c.13.044 13.135 4.386 19.347-5.056 2.839-4.317 7.493-7.203 13.459-8.347a29.935 29.935 0 013.066-.42c.026-.003.047-.015.073-.015.01 0 .017.005.026.005A30.39 30.39 0 0149 49.71c-.102-2.11-.874-7.791-6.016-11.67m127.645 108.285c2.864 9.603 2.756 21.118 2.656 24.418-.003.08-.028.151-.052.223-.008.024-.007.052-.017.075a.824.824 0 01-.137.203c-.014.017-.022.038-.037.054a.83.83 0 01-.226.152c-.011.005-.02.016-.032.021a.823.823 0 01-.314.064H150L163.78 187H188v-62h-14.774c.382 7.988-5.993 11.148-9.681 12.302 2.713 1.346 5.574 3.96 7.084 9.023m8.722-60.374c-.308.341-7.639 8.334-16.885 8.334-9.247 0-16.578-7.993-16.885-8.334a.813.813 0 010-1.092c.307-.34 7.638-8.334 16.885-8.334 9.246 0 16.577 7.993 16.885 8.334.28.31.28.783 0 1.092m-13.044 26.127c-.792 0-1.288-.061-1.31-.064a.813.813 0 01.216-1.612c.404.053 9.982 1.21 11.888-8.484a.81.81 0 111.589.314c-1.753 8.915-9.307 9.846-12.383 9.846m14.036-43.36a.807.807 0 01-.5-.174c-.21-.167-17.594-13.747-34.852-15.805v54.394h8.552a.81.81 0 01.809.813c0 5.837 2.938 10.995 7.404 14.07a16.882 16.882 0 001.32.82c.113.064.226.124.34.185a16.782 16.782 0 007.915 1.979H187V26.173c-17.375-8.775-27.152 3.378-27.564 3.904a.796.796 0 01-.672.312c-7.197-.304-12.93 1.539-17.028 5.48-5.436 5.226-6.52 12.79-6.736 15.504 10.565-2.042 22.24 2.22 30.291 6.236 8.96 4.469 15.49 9.606 15.554 9.658a.816.816 0 01.135 1.142.81.81 0 01-.637.31"/><path fill="#F1EBDD" d="M163 92.352c-1.554 0-3.056-.274-4.48-.705 3.33-.294 5.955-3.159 5.955-6.644 0-3.493-2.637-6.363-5.98-6.645 1.432-.434 2.941-.71 4.505-.71 7.137 0 13.27 5.555 15.067 7.353-1.795 1.798-7.916 7.35-15.067 7.35m-9.952-7.348c0-2.77 2.201-5.025 4.908-5.025 2.707 0 4.909 2.254 4.909 5.025 0 2.771-2.202 5.025-4.91 5.025-2.706 0-4.907-2.254-4.907-5.025m-.446 3.797a30.916 30.916 0 01-4.67-3.8c.8-.802 2.461-2.346 4.685-3.815a6.741 6.741 0 00-1.18 3.818c0 1.41.433 2.718 1.165 3.797m27.189-3.246a.838.838 0 000-1.108C179.485 84.101 172.195 76 163 76s-16.485 8.101-16.79 8.446a.836.836 0 000 1.108c.305.345 7.595 8.446 16.79 8.446s16.485-8.101 16.79-8.446m-.805 15.433c.084-.447-.194-.883-.62-.972-.426-.087-.84.204-.924.652-1.852 9.859-11.157 8.682-11.55 8.628-.432-.058-.826.258-.884.71-.058.452.243.868.674.93.022.003.504.065 1.272.065 2.99 0 10.328-.947 12.032-10.013M26 77.648c1.562 0 3.07.276 4.5.71-3.34.285-5.975 3.154-5.975 6.645 0 3.485 2.625 6.35 5.956 6.644-1.424.43-2.926.705-4.48.705-7.138 0-13.27-5.555-15.068-7.353 1.795-1.798 7.916-7.35 15.067-7.35m9.953 7.354c0 2.771-2.202 5.025-4.908 5.025-2.707 0-4.91-2.254-4.91-5.025 0-2.77 2.203-5.025 4.91-5.025 2.706 0 4.908 2.254 4.908 5.025M41.067 85a30.926 30.926 0 01-4.668 3.8 6.743 6.743 0 001.165-3.797 6.746 6.746 0 00-1.174-3.809A30.904 30.904 0 0141.067 85m1.724.554a.838.838 0 000-1.108C42.485 84.101 35.195 76 26 76c-9.196 0-16.486 8.101-16.792 8.446a.838.838 0 000 1.108C9.515 85.899 16.805 94 26 94s16.485-8.101 16.79-8.446m85.593 73.894c0 9.318-7.41 16.898-16.52 16.898s-16.522-7.58-16.522-16.898v-17.794h33.042v17.794zm-34.724 0c0 9.318-7.411 16.898-16.52 16.898-9.11 0-16.522-7.58-16.522-16.898v-17.794h33.042v17.794zM129.192 140H94.533c-.012 0-.021.006-.033.007-.011 0-.021-.007-.033-.007H59.81a.818.818 0 00-.809.827v18.621C59 169.678 67.137 178 77.138 178c8.179 0 15.108-5.567 17.362-13.19 2.255 7.623 9.184 13.19 17.363 13.19 10 0 18.137-8.323 18.137-18.552v-18.621a.817.817 0 00-.808-.827z"/><path fill="#F1EBDD" d="M48.48 143.905c-1.061 1.046-2.84 1.127-3.55 1.115l-.413-.008c-.465-.01-.93-.02-1.4-.02l-11.208.054c-.043 0-.08.018-.122.025-.064.01-.13.015-.189.04-.042.018-.074.05-.112.075-.05.032-.103.057-.144.098-.033.034-.052.078-.08.118-.032.046-.07.086-.092.139-.02.046-.02.098-.031.148-.012.054-.033.104-.034.161l.001.006v.006c0 .053.02.1.03.15.01.054.012.11.033.16.02.047.055.084.083.126.03.045.052.094.089.132.036.036.084.057.126.087.043.03.08.066.13.087.05.022.109.024.164.035.049.01.094.03.145.03 5.873.054 9.297.057 10.178.01 4.047-.213 5.804.602 6.56 1.323.498.474.74 1.075.74 1.837 0 1.1-.296 1.927-.904 2.526-1.061 1.046-2.84 1.125-3.55 1.114l-.413-.008c-.465-.009-.93-.018-1.4-.018l-11.208.053c-.043 0-.08.018-.122.025-.064.01-.13.015-.189.04-.042.018-.074.05-.112.075-.05.031-.103.057-.144.098-.033.034-.052.079-.08.118-.032.046-.07.087-.092.139-.02.046-.02.098-.031.148-.012.054-.033.104-.034.161l.001.006v.006c0 .053.02.1.03.15.01.054.012.11.033.16.02.047.055.084.083.126.03.045.052.094.089.131.036.037.084.058.126.088.043.03.08.066.13.087.05.022.109.024.164.035.049.01.094.03.145.03 5.873.054 9.297.057 10.178.01 4.047-.212 5.804.603 6.56 1.323.498.474.74 1.075.74 1.837 0 1.1-.296 1.927-.904 2.526-1.061 1.046-2.84 1.122-3.55 1.114l-.413-.008c-.465-.009-.93-.018-1.4-.018l-11.208.053c-.043 0-.08.018-.12.025a.776.776 0 00-.684.78l.001.005v.005c0 .054.02.1.03.151.01.054.012.11.033.16.02.047.055.084.083.126.03.044.052.094.089.131.036.037.084.059.126.087.043.03.08.067.13.087.05.023.109.025.164.036.049.01.094.03.145.03 2.056.02 4.024.01 5.68.004 2.069-.008 3.7-.016 4.29.036 2.997.266 4.517 1.32 4.517 3.13 0 1.1-.296 1.926-.903 2.526-1.062 1.046-2.839 1.127-3.551 1.114l-.414-.008c-.465-.01-.93-.019-1.395-.019H17.544c-.137-6.598.467-15.85 2.581-22.96 2.679-9.003 10.082-9.264 11.608-9.211.196.005.393.01.587.013 5.612.05 8.897.052 9.764.007 4.053-.223 5.804.6 6.56 1.321.498.474.74 1.075.74 1.838 0 1.1-.296 1.926-.904 2.525zm-22.865 43.457l-23.999.024v-61.627h14.64c-.373 7.82 5.754 10.983 9.43 12.171-2.708 1.325-5.595 3.926-7.109 9.017-2.838 9.54-2.732 20.982-2.632 24.262.003.07.027.132.046.196.01.034.01.07.023.102.028.065.073.119.117.174.02.025.033.057.056.08a.821.821 0 00.193.131c.022.012.039.031.062.04.096.041.2.064.31.064h22.52l-13.657 15.366zM1.616 38.819c19.113-6.47 33.194-6.848 40.746-1.086 5.112 3.9 5.88 9.61 5.981 11.73a29.909 29.909 0 00-4.094.073c-.009 0-.016-.006-.026-.006-.026 0-.047.013-.072.015-.942.083-1.966.213-3.049.423-5.93 1.15-10.558 4.05-13.38 8.39-6.176 9.49-19.106 5.126-19.235 5.081a.805.805 0 00-1.028.5.813.813 0 00.497 1.034c.143.05 14.248 4.835 21.118-5.728 3.653-5.615 9.82-7.435 14.341-7.977v55.028H34.88a.81.81 0 00-.808.812c0 2.061-.385 4.03-1.056 5.86-2.296-.828-9.707-3.664-13.153-6.984a.807.807 0 00-.926-.138.814.814 0 00-.435.833c.05.37 1.27 8.775 8.573 14.182-2.798 2.05-6.23 3.274-9.95 3.274H1.615V38.819zm26.767 80.98c-4.771-3.376-6.877-8.256-7.737-11.084 3.928 2.81 9.631 4.995 11.738 5.751a17.078 17.078 0 01-4.001 5.333zM51 141.38c0-1.214-.418-2.228-1.244-3.015-1.436-1.368-4.045-1.961-7.756-1.765-.824.043-4.165.04-9.667-.009a32.64 32.64 0 01-.633-.015c-.528-.01-1.755.011-3.275.376-.612-.1-3.24-.595-5.71-2.102-3.434-2.095-5.06-5.158-4.842-9.109a18.418 18.418 0 0011.012-4.217.802.802 0 00.159-.134 18.648 18.648 0 006.627-13.469h8.552a.81.81 0 00.808-.812v-55.99c2.364-.153 3.986.025 4.034.03a.805.805 0 00.901-.757c.02-.346.429-8.551-6.604-13.935-8.184-6.263-22.59-5.922-42.815 1.012a.814.814 0 00-.547.769v149.951a.81.81 0 00.799.812l25.165-.01h.01c.23 0 .449-.098.602-.27l14.847-16.707.07.001.415.009.172.002c1.172 0 3.167-.226 4.541-1.581.921-.909 1.388-2.148 1.388-3.685 0-1.101-.345-2.353-1.567-3.305 1.045-.165 2.248-.561 3.17-1.47.92-.908 1.388-2.148 1.388-3.685 0-1.214-.418-2.228-1.243-3.015a5.086 5.086 0 00-1.35-.902 4.787 4.787 0 001.205-.858c.92-.908 1.388-2.148 1.388-3.685 0-1.214-.418-2.228-1.243-3.015a5.126 5.126 0 00-1.35-.902 4.787 4.787 0 001.205-.858c.92-.908 1.388-2.148 1.388-3.684zm112.471 45.994l-13.61-15.34h22.192c.11 0 .214-.023.31-.064.012-.005.02-.015.032-.02a.826.826 0 00.222-.152c.015-.015.023-.036.037-.052a.81.81 0 00.135-.202c.01-.024.01-.05.017-.074.023-.072.049-.143.05-.222.1-3.274.206-14.696-2.622-24.222-1.491-5.022-4.316-7.615-6.995-8.95 3.642-1.144 9.937-4.28 9.56-12.203h14.59v61.501h-23.918zm-16.519-16.934c-.717.012-2.48-.069-3.539-1.113-.605-.599-.9-1.423-.9-2.522 0-1.807 1.515-2.858 4.502-3.124.586-.054 2.213-.045 4.274-.037 1.651.007 3.612.017 5.662-.003.051 0 .095-.021.144-.03.055-.012.114-.014.165-.036.048-.02.084-.057.127-.086.043-.029.09-.051.127-.088.037-.037.058-.085.087-.129.029-.043.064-.08.085-.128.02-.049.021-.104.032-.157.01-.051.03-.099.031-.153l-.001-.005.001-.006c0-.058-.022-.109-.034-.164-.01-.048-.011-.1-.03-.145-.023-.052-.061-.094-.094-.14-.027-.039-.045-.083-.078-.116-.042-.042-.096-.068-.145-.1-.038-.024-.069-.056-.11-.074-.059-.024-.125-.029-.19-.04-.04-.006-.077-.024-.12-.024l-11.175-.053c-.464 0-.927.01-1.39.019l-.412.008c-.714.008-2.481-.068-3.539-1.113-.605-.599-.9-1.423-.9-2.522 0-.76.24-1.36.736-1.834.755-.72 2.5-1.536 6.539-1.32.878.046 4.29.043 10.144-.01.051 0 .095-.02.144-.03.055-.012.114-.014.165-.036.048-.02.084-.057.127-.086.043-.029.09-.05.127-.088.037-.037.058-.086.087-.129.029-.043.064-.08.085-.128.02-.049.021-.104.032-.157.01-.051.03-.099.031-.153l-.001-.005.001-.006c0-.058-.022-.109-.034-.163-.01-.049-.011-.101-.03-.146-.023-.052-.061-.094-.094-.14-.027-.039-.045-.083-.078-.116-.042-.042-.096-.068-.145-.1-.038-.024-.069-.056-.11-.073-.059-.025-.125-.03-.19-.04-.04-.007-.077-.025-.12-.025l-11.175-.053c-.464 0-.927.01-1.39.019l-.412.008c-.714.01-2.481-.068-3.539-1.113-.605-.598-.9-1.423-.9-2.522 0-.76.24-1.36.736-1.834.755-.72 2.5-1.535 6.539-1.32.878.046 4.292.043 10.144-.01.051 0 .095-.021.144-.03.055-.012.114-.014.165-.036.048-.02.084-.057.127-.086.043-.03.09-.05.127-.088.037-.037.058-.085.087-.129.029-.043.064-.08.085-.128.02-.049.021-.104.032-.157.01-.051.03-.098.031-.152l-.001-.006.001-.006c0-.058-.022-.109-.034-.163-.01-.049-.011-.1-.03-.146-.023-.052-.061-.094-.094-.14-.027-.039-.045-.083-.078-.116-.042-.042-.096-.068-.145-.1-.038-.024-.069-.055-.11-.073-.059-.025-.125-.03-.19-.04-.04-.007-.077-.025-.12-.025l-11.175-.053c-.464 0-.927.01-1.39.019l-.412.008c-.714.013-2.482-.068-3.539-1.113-.605-.598-.9-1.423-.9-2.521 0-.76.241-1.361.737-1.835.755-.72 2.497-1.533 6.539-1.319.865.045 4.138.044 9.728-.007.196-.002.392-.007.664-.015 1.472-.057 8.822.21 11.491 9.198 2.108 7.1 2.71 16.337 2.573 22.923h-22.51c-.463 0-.926.01-1.39.019l-.412.008zm7.961-63.187c0-.448-.36-.81-.805-.81h-8.506V52.227c17.167 2.051 34.46 15.587 34.668 15.752a.8.8 0 001.131-.135.813.813 0 00-.134-1.137c-.065-.052-6.56-5.173-15.472-9.626-8.01-4.003-19.622-8.251-30.132-6.216.215-2.705 1.293-10.244 6.7-15.454 4.077-3.928 9.78-5.765 16.94-5.462a.792.792 0 00.668-.31c.41-.525 10.135-12.639 27.418-3.891v98.504h-15.586c-9.313 0-16.89-7.626-16.89-16.999zm34.064-82.124c-.008-.056-.013-.112-.033-.165-.018-.05-.046-.092-.074-.137-.026-.044-.05-.087-.084-.126-.04-.043-.086-.075-.134-.109-.03-.021-.052-.052-.086-.07-17.13-8.954-27.773 1.744-29.588 3.793-7.443-.243-13.41 1.757-17.74 5.935C134.082 41.156 134 51.443 134 51.878c0 .247.113.481.305.635.194.154.441.21.684.154 2.915-.687 5.948-.833 9.003-.6v55.186c0 .448.36.81.805.81h8.523c.414 9.688 8.219 17.475 17.868 17.794.216 3.944-1.404 7-4.826 9.091-2.794 1.707-5.794 2.115-5.824 2.119-.011.001-.02.008-.03.01a13.635 13.635 0 00-3.433-.404c-.183.006-.367.011-.551.013-5.48.05-8.811.053-9.632.009-3.702-.197-6.3.396-7.732 1.762-.822.786-1.239 1.798-1.239 3.011 0 1.534.466 2.772 1.383 3.678.365.36.775.64 1.202.857a5.09 5.09 0 00-1.346.9c-.822.786-1.239 1.799-1.239 3.01 0 1.535.466 2.772 1.383 3.68.365.36.775.638 1.202.856a5.09 5.09 0 00-1.346.9c-.822.785-1.239 1.799-1.239 3.01 0 1.535.466 2.772 1.383 3.68.92.907 2.12 1.302 3.16 1.467-1.217.95-1.562 2.2-1.562 3.3 0 1.534.466 2.77 1.384 3.678 1.37 1.353 3.358 1.578 4.526 1.578l.17-.001.415-.009.318-.004 14.799 16.682c.154.172.371.27.6.27h.01l25.08-.014a.809.809 0 00.796-.81V25.24c0-.04-.017-.073-.023-.112z"/></g></svg>