<svg xmlns="http://www.w3.org/2000/svg" width="420" height="597"><path fill="#FFF" fill-rule="evenodd" d="M420 595.14V597h-1.861l1.861-1.86zm0-173.582v4.249L248.684 597h-4.253L420 421.558zm0 24.797v4.25L273.5 597h-4.253L420 446.355zm0-99.19v4.25L174.239 597h-4.254L420 347.165zm0 123.988v4.251L298.316 597h-4.254L420 471.153zm0-74.393v4.249L223.869 597h-4.253L420 396.76zm0-24.797v4.25L199.053 597h-4.252L420 371.963zm0 198.38v4.258L397.585 597h-4.262L420 570.343zm0-49.595v4.251L347.947 597h-4.254L420 520.748zm0-347.785v4.256L.567 597H0v-3.688l420-420.35zm0 24.797v4.255L25.346 597h-4.253L420 197.76zm0 74.393v4.256L99.791 597H95.54L420 272.153zm0 25.417v4.248L124.607 597h-4.252L420 297.57zm0 24.798v4.249L149.423 597h-4.253L420 322.368zm0-75.013v4.257L74.977 597h-4.253L420 247.355zm0-24.797v4.256L50.162 597h-4.254L420 222.558zm0 322.987v4.253L372.764 597h-4.256L420 545.545zm0-49.595v4.251L323.132 597h-4.255L420 495.95zm0-347.785v4.256L0 572.822v-4.256l420-420.4zm0-24.797v4.256L0 548.024v-4.255l420-420.401zm0-24.798v4.257L0 523.227v-4.255L420 98.57zm0-24.797v4.256L0 498.43v-4.255L420 73.773zm0-24.798v4.256L0 473.632v-4.256l420-420.4zm0-24.797v4.255L0 448.835v-4.257l420-420.4zM420 0v3.505L0 423.417v-4.251L419.253 0H420zm-21.093 0L0 398.62v-4.251L394.653 0h4.254zm-24.815 0L0 373.822v-4.25L369.837 0h4.255zm-24.816 0L0 349.025v-4.252L345.02 0h4.256zm-24.815 0L0 324.227v-4.251L320.205 0h4.256zm-24.816 0L0 299.43v-4.252L295.39 0h4.255zM274.83 0L0 274.632v-4.252L270.575 0h4.255zm-24.815 0L0 249.835v-4.252L245.76 0h4.255zm-24.816 0L0 225.037v-4.253L220.942 0h4.257zm-24.815 0L0 200.24v-4.253L196.128 0h4.256zm-24.815 0L0 175.442v-4.253L171.31 0h4.259zm-24.816 0L0 150.645v-4.255L146.494 0h4.26zm-24.815 0L0 125.847v-4.255L121.678 0h4.26zm-24.815 0L0 101.05v-4.258L96.86 0h4.263zM76.307 0L0 76.252v-4.261L72.043 0h4.264zM51.492 0L0 51.455v-4.268L47.22 0h4.272zM26.677 0L0 26.657v-4.285L22.387 0h4.29zM1.86 0L0 1.86V0h1.861z"/></svg>