<svg width="148" height="25" xmlns="http://www.w3.org/2000/svg"><path d="M9.885 21.116H3.507v-10.56h6.378c2.907 0 5.263 2.364 5.263 5.28 0 2.916-2.356 5.28-5.263 5.28zm-6.378-17.6H9.48c.97 0 1.756.788 1.756 1.761A1.76 1.76 0 019.48 7.04H3.507V3.515zm10.424 4.531a5.258 5.258 0 00.788-2.768C14.719 2.363 12.363 0 9.457 0H0v24.636h9.953v-.005c4.801-.05 8.678-3.966 8.678-8.794a8.797 8.797 0 00-4.7-7.79zm10.86-1.008h6.269v3.52h-6.268v14.077h-3.507V10.558a3.513 3.513 0 013.507-3.52v.001zm118.052 12.775c-1.099 1.103-2.42 1.654-3.963 1.654-1.193 0-2.263-.34-3.21-1.02a5.77 5.77 0 01-2.052-2.64v-3.906a5.61 5.61 0 012.034-2.657 5.387 5.387 0 013.228-1.039c1.543 0 2.864.552 3.963 1.654 1.1 1.104 1.649 2.429 1.649 3.977 0 1.549-.55 2.875-1.649 3.977zm2.49-10.452c-1.777-1.783-3.928-2.675-6.453-2.675-1.941 0-3.695.564-5.262 1.69V0h-3.507v24.636h3.507v-1.302c1.543 1.103 3.298 1.654 5.262 1.654 2.525 0 4.676-.892 6.454-2.675C147.11 20.53 148 18.37 148 15.837s-.889-4.692-2.666-6.475zm-22.539-2.323h3.508v17.597h-3.508v-.599c-1.122.634-2.292.95-3.508.95-1.917 0-3.566-.691-4.946-2.076-1.38-1.384-2.069-3.038-2.069-4.962V7.04h3.507v10.91c0 .962.346 1.79 1.036 2.481.69.692 1.513 1.038 2.472 1.038.935 0 1.748-.328 2.438-.985.69-.657 1.046-1.454 1.07-2.393V7.04zM105.091 0h3.508v24.636h-3.508V10.559H95.16v14.077h-3.507V0h3.507v7.04h9.93V0zM84.336 17.808a5.728 5.728 0 01-2.07 2.64 5.393 5.393 0 01-3.192 1.02c-1.543 0-2.864-.55-3.964-1.654-1.099-1.102-1.648-2.428-1.648-3.977 0-1.548.55-2.873 1.648-3.977 1.1-1.102 2.421-1.654 3.964-1.654 1.193 0 2.262.34 3.21 1.021a5.742 5.742 0 012.052 2.675v3.906zm0-9.431c-1.613-1.126-3.367-1.69-5.262-1.69-2.526 0-4.677.892-6.454 2.675-1.778 1.783-2.666 3.942-2.666 6.475 0 2.534.888 4.693 2.666 6.476 1.777 1.783 3.928 2.675 6.454 2.675 1.964 0 3.718-.551 5.262-1.654v1.302h3.508V0h-3.508v8.377zm-19.054.386c1.379 1.385 2.069 3.04 2.069 4.963v10.91h-3.507v-10.91c0-.962-.346-1.79-1.036-2.481-.69-.692-1.514-1.039-2.472-1.039-.936 0-1.743.33-2.421.986a3.463 3.463 0 00-1.087 2.393v11.05H53.32V7.04h3.508v.598a6.79 6.79 0 013.508-.95c1.916 0 3.565.693 4.946 2.076zm-19.278 9.045a5.726 5.726 0 01-2.07 2.64 5.392 5.392 0 01-3.191 1.02c-1.544 0-2.865-.55-3.964-1.654-1.1-1.102-1.649-2.428-1.649-3.977 0-1.548.55-2.873 1.649-3.977 1.1-1.102 2.42-1.654 3.964-1.654 1.192 0 2.262.34 3.209 1.021a5.743 5.743 0 012.052 2.675v3.906zm0-9.431c-1.613-1.126-3.367-1.69-5.261-1.69-2.526 0-4.678.892-6.455 2.675-1.777 1.783-2.665 3.942-2.665 6.475 0 2.534.888 4.693 2.665 6.476 1.777 1.783 3.929 2.675 6.455 2.675 1.964 0 3.718-.551 5.261-1.654v1.302h3.508V7.039h-3.508v1.338z" fill="#021E48" fill-rule="evenodd"/></svg>