<svg xmlns="http://www.w3.org/2000/svg" width="305" height="433" viewBox="0 0 305 433">
    <path fill="#F2EBDD" fill-rule="evenodd" d="M305 432v1h-1l1-1zm0-126v3.076L181.076 433H178l127-127zm0 18v3.075L199.075 433H196l109-109zm0-72v3.079L126.096 433H123l182-181zm0 90v3.074L217.074 433H214l91-91zm0-54v3.077L162.099 433H159l146-145zm0-18v3.078L144.097 433H141l164-163zm0 90v3.07L235.072 433H232l73-73zm0 36v3.058L271.058 433H268l37-37zm0 18v3.035L289.035 433H286l19-19zm0-36v3.067L253.067 433H250l55-55zm0-253v3.092L.412 433H0v-2.678L305 125zm0 18v3.09L18.092 433H15l290-290zm0 54v3.092L72.093 433H69l236-236zm0 19v3.079L90.094 433H87l218-217zm0 18v3.08L108.095 433H105l200-199zm0-55v3.092L54.093 433H51l254-254zm0-18v3.092L36.093 433H33l272-272zm0-54v3.087L0 415v-3.087L305 107zm0-18v3.087L0 397v-3.087L305 89zm0-18v3.087L0 379v-3.087L305 71zm0-17v3.087L0 362v-3.087L305 54zm0-18v3.087L0 344v-3.087L305 36zm0-18v3.087L0 326v-3.087L305 18zm0-18v2.542L0 307v-3.083L304.458 0H305zm-15 0L0 289v-3.082L286.907 0H290zm-18 0L0 271v-3.081L268.907 0H272zm-18 0L0 253v-3.082L250.905 0H254zm-18 0L0 235v-3.082L232.905 0H236zm-18 0L0 217v-3.081L214.904 0H218zm-18 0L0 199v-3.081L196.903 0H200zm-18 0L0 181v-3.08L178.902 0H182zm-18 0L0 163v-3.08L160.9 0h3.1zm-18 0L0 145v-3.08L142.899 0H146zm-19 0L0 127v-3.079L123.92 0H127zm-18 0L0 109v-3.079L105.92 0H109zM91 0L0 91v-3.077L87.922 0H91zM73 0L0 73v-3.076L69.923 0H73zM55 0L0 55v-3.074L51.926 0H55zM37 0L0 37v-3.069L33.93 0H37zM19 0L0 19v-3.054L15.945 0H19zM1 0L0 1V0h1z"/>
</svg>
