<?xml version="1.0" encoding="UTF-8"?>
<svg width="148px" height="25px" viewBox="0 0 148 25" version="1.1" xmlns="http://www.w3.org/2000/svg" xmlns:xlink="http://www.w3.org/1999/xlink">
    <!-- Generator: Sketch 57.1 (83088) - https://sketch.com -->
    <title>elem / logo</title>
    <desc>Created with Sketch.</desc>
    <g id="Page-1" stroke="none" stroke-width="1" fill="none" fill-rule="evenodd">
        <g id="BrandHub-index-1" transform="translate(-216.000000, -72.000000)" fill="#021E48">
            <g id="elem-/-logo" transform="translate(216.000000, 72.000000)">
                <path d="M9.88539661,21.1161074 L3.50734915,21.1161074 L3.50734915,10.5560403 L9.88539661,10.5560403 C12.7918825,10.5560403 15.148009,12.9197987 15.148009,15.835906 C15.148009,18.7520134 12.7918825,21.1161074 9.88539661,21.1161074 L9.88539661,21.1161074 Z M3.50734915,3.51510067 L9.47952542,3.51510067 C10.4494689,3.51510067 11.2356249,4.30402685 11.2356249,5.27718121 C11.2356249,6.25 10.4494689,7.03909396 9.47952542,7.03909396 L3.50734915,7.03909396 L3.50734915,3.51510067 Z M13.9312316,8.04714765 C14.4274079,7.24194631 14.7187254,6.29563758 14.7187254,5.27902685 C14.7187254,2.36342282 12.3631006,1.84741111e-13 9.45711638,1.84741111e-13 L0,1.84741111e-13 L0,24.6357383 L9.95295819,24.6357383 L9.95362712,24.6308725 C14.7540113,24.5808725 18.6312768,20.6652685 18.6312768,15.8374161 C18.6312768,12.4528523 16.7238328,9.51912752 13.9312316,8.04714765 L13.9312316,8.04714765 Z M24.7917559,7.03926174 L31.059765,7.03926174 L31.059765,10.5582215 L24.7917559,10.5582215 L24.7917559,24.6357383 L21.284574,24.6357383 L21.284574,10.5577181 C21.284574,8.61442953 22.8547119,7.03892617 24.7917559,7.03892617 L24.7917559,7.03926174 Z M142.843412,19.8137584 C141.744032,20.9174497 140.423236,21.4681208 138.880023,21.4681208 C137.687327,21.4681208 136.617379,21.1280201 135.670179,20.4479866 C134.722979,19.7676174 134.039336,18.8874161 133.617912,17.8078859 L133.617912,13.9021812 C134.015756,12.8224832 134.69388,11.936745 135.652285,11.2449664 C136.611693,10.5531879 137.687327,10.2062081 138.880023,10.2062081 C140.423236,10.2062081 141.744032,10.7580537 142.843412,11.8604027 C143.942626,12.9639262 144.491982,14.2889262 144.491982,15.8374161 C144.491982,17.385906 143.942626,18.711745 142.843412,19.8137584 L142.843412,19.8137584 Z M145.333659,9.36157718 C143.556321,7.57902685 141.405388,6.68741611 138.880023,6.68741611 C136.938798,6.68741611 135.184705,7.25067114 133.617912,8.37651007 L133.617912,0.000167785235 L130.110897,0.000167785235 L130.110897,24.6357383 L133.617912,24.6357383 L133.617912,23.333557 C135.16146,24.4365772 136.915553,24.9875839 138.880023,24.9875839 C141.405388,24.9875839 143.556321,24.0959732 145.333659,22.3125839 C147.111331,20.5300336 148,18.3711409 148,15.8374161 C148,13.3036913 147.111331,11.1449664 145.333659,9.36157718 L145.333659,9.36157718 Z M122.794346,7.03926174 L126.301528,7.03926174 L126.301528,24.6357383 L122.794346,24.6357383 L122.794346,24.0374161 C121.671553,24.6708054 120.501767,24.9875839 119.286495,24.9875839 C117.368515,24.9875839 115.720113,24.2958054 114.340452,22.9107383 C112.960791,21.5271812 112.271295,19.8733221 112.271295,17.9491611 L112.271295,7.03926174 L115.77831,7.03926174 L115.77831,17.9491611 C115.77831,18.9114094 116.123643,19.738255 116.813808,20.4300336 C117.503304,21.1224832 118.327254,21.4681208 119.286495,21.4681208 C120.221487,21.4681208 121.033898,21.1397651 121.724063,20.4828859 C122.413559,19.8261745 122.770097,19.0286913 122.794346,18.0899329 L122.794346,7.03926174 Z M105.090703,1.84741111e-13 L108.598554,1.84741111e-13 L108.598554,24.6357383 L105.090703,24.6357383 L105.090703,10.5588926 L95.1599864,10.5588926 L95.1599864,24.6357383 L91.6529718,24.6357383 L91.6529718,1.84741111e-13 L95.1599864,1.84741111e-13 L95.1599864,7.03926174 L105.090703,7.03926174 L105.090703,1.84741111e-13 Z M84.3357514,17.8078859 C83.9151638,18.8874161 83.2248316,19.7676174 82.2665944,20.4479866 C81.3073537,21.1281879 80.243426,21.4681208 79.0744768,21.4681208 C77.531096,21.4681208 76.2096316,20.9174497 75.1102508,19.8137584 C74.0112045,18.711745 73.4616814,17.385906 73.4616814,15.8374161 C73.4616814,14.2889262 74.0112045,12.9639262 75.1102508,11.8604027 C76.2096316,10.7580537 77.531096,10.2062081 79.0744768,10.2062081 C80.2671729,10.2062081 81.336452,10.5468121 82.2834847,11.2270134 C83.2306847,11.9080537 83.9151638,12.7989933 84.3357514,13.9021812 L84.3357514,17.8078859 Z M84.3357514,8.37651007 C82.722635,7.25067114 80.9685424,6.68741611 79.0744768,6.68741611 C76.5484429,6.68741611 74.3966734,7.57902685 72.6200045,9.36157718 C70.8424994,11.1449664 69.9544994,13.3036913 69.9544994,15.8374161 C69.9544994,18.3711409 70.8424994,20.5300336 72.6200045,22.3125839 C74.3966734,24.0959732 76.5484429,24.9875839 79.0744768,24.9875839 C81.038278,24.9875839 82.7923706,24.4365772 84.3357514,23.333557 L84.3357514,24.6357383 L87.8437695,24.6357383 L87.8437695,0.000167785235 L84.3357514,0.000167785235 L84.3357514,8.37651007 Z M65.281713,8.76325503 C66.6607051,10.1481544 67.3508701,11.802349 67.3508701,13.7256711 L67.3508701,24.6357383 L63.8436881,24.6357383 L63.8436881,13.7256711 C63.8436881,12.764094 63.4978531,11.936745 62.8083571,11.2447987 C62.118861,10.5530201 61.2940746,10.2062081 60.3356701,10.2062081 C59.400009,10.2062081 58.5931164,10.5352349 57.9149921,11.1921141 C57.2368678,11.8489933 56.8746441,12.6469799 56.827652,13.5850671 L56.827652,24.6357383 L53.3204701,24.6357383 L53.3204701,7.03926174 L56.827652,7.03926174 L56.827652,7.63741611 C57.9036203,7.00369128 59.0727367,6.68724832 60.3356701,6.68724832 C62.2524791,6.68724832 63.9012158,7.37969799 65.281713,8.76325503 L65.281713,8.76325503 Z M46.0040859,17.8078859 C45.5834983,18.8874161 44.8933333,19.7676174 43.9347616,20.4479866 C42.9756881,21.1281879 41.9119277,21.4681208 40.7428113,21.4681208 C39.1994305,21.4681208 37.8781333,20.9174497 36.7787525,19.8137584 C35.6793718,18.711745 35.1301831,17.385906 35.1301831,15.8374161 C35.1301831,14.2889262 35.6793718,12.9639262 36.7787525,11.8604027 C37.8781333,10.7580537 39.1994305,10.2062081 40.7428113,10.2062081 C41.9353401,10.2062081 43.0047864,10.5468121 43.9519864,11.2270134 C44.8990192,11.9080537 45.5834983,12.7989933 46.0040859,13.9021812 L46.0040859,17.8078859 Z M46.0040859,8.37651007 C44.3909695,7.25067114 42.6370441,6.68741611 40.7428113,6.68741611 C38.2167774,6.68741611 36.0650079,7.57902685 34.288339,9.36157718 C32.5108339,11.1449664 31.6228339,13.3036913 31.6228339,15.8374161 C31.6228339,18.3711409 32.5108339,20.5300336 34.288339,22.3125839 C36.0650079,24.0959732 38.2167774,24.9875839 40.7428113,24.9875839 C42.7067797,24.9875839 44.4607051,24.4365772 46.0040859,23.333557 L46.0040859,24.6357383 L49.512104,24.6357383 L49.512104,7.03926174 L46.0040859,7.03926174 L46.0040859,8.37651007 Z" id="Fill-1"></path>
            </g>
        </g>
    </g>
</svg>