<?xml version="1.0" encoding="utf-8"?>
<!-- Generator: Adobe Illustrator 24.2.3, SVG Export Plug-In . SVG Version: 6.00 Build 0)  -->
<svg version="1.1" id="Layer_1" xmlns="http://www.w3.org/2000/svg" xmlns:xlink="http://www.w3.org/1999/xlink" x="0px" y="0px"
	 viewBox="0 0 15 11" style="enable-background:new 0 0 15 11;" xml:space="preserve">
<style type="text/css">
	.st0{fill-rule:evenodd;clip-rule:evenodd;fill:#DB6A6A;}
</style>
<path class="st0" d="M5.7,10.7C5.5,10.9,5.2,11,4.9,11s-0.6-0.1-0.8-0.3L0.3,7C0.1,6.8,0,6.5,0,6.2C0,6,0.1,5.7,0.3,5.5
	c0.2-0.2,0.5-0.3,0.8-0.3c0.3,0,0.6,0.1,0.8,0.3l3,2.9l8.2-8C13.3,0.1,13.6,0,13.9,0c0.3,0,0.5,0.1,0.8,0.3C14.9,0.5,15,0.8,15,1
	c0,0.3-0.1,0.6-0.3,0.8L5.7,10.7L5.7,10.7z"/>
</svg>
