<?xml version="1.0" encoding="utf-8"?>
<!-- Generator: Adobe Illustrator 24.2.3, SVG Export Plug-In . SVG Version: 6.00 Build 0)  -->
<svg version="1.1" id="Layer_1" xmlns="http://www.w3.org/2000/svg" xmlns:xlink="http://www.w3.org/1999/xlink" x="0px" y="0px"
	 viewBox="0 0 60 60" style="enable-background:new 0 0 60 60;" xml:space="preserve">
<style type="text/css">
	.st0{filter:url(#Adobe_OpacityMaskFilter);}
	.st1{fill-rule:evenodd;clip-rule:evenodd;fill:#FFFFFF;}
	.st2{mask:url(#mask-2_1_);fill-rule:evenodd;clip-rule:evenodd;}
</style>
<desc>Created with Sketch.</desc>
<g id="Page-1">
	<g id="BrandHub-index-1" transform="translate(-625.000000, -4313.000000)">
		<g id="Group-17" transform="translate(625.000000, 4298.000000)">
			<g id="icon-_x2F_-konsultacja" transform="translate(0.000000, 15.000000)">
				<g id="Group-3">
					<g id="Clip-2">
					</g>
					<defs>
						<filter id="Adobe_OpacityMaskFilter" filterUnits="userSpaceOnUse" x="0" y="0" width="60" height="60">
							<feColorMatrix  type="matrix" values="1 0 0 0 0  0 1 0 0 0  0 0 1 0 0  0 0 0 1 0"/>
						</filter>
					</defs>
					<mask maskUnits="userSpaceOnUse" x="0" y="0" width="60" height="60" id="mask-2_1_">
						<g class="st0">
							<polygon id="path-1_1_" class="st1" points="0,0 60,0 60,60 0,60 							"/>
						</g>
					</mask>
					<path id="Fill-1" class="st2" d="M56,47h2v-2h-2V47z M56,43h2V31h-2V43z M41,2h2V0h-2V2z M2,26h2v-9H2V26z M53,0h-8v2h8
						c2.8,0,5,2.2,5,5v3h2V7C60,3.1,56.9,0,53,0L53,0z M28,23h19v-2H28V23z M27,42h13v-2H27V42z M27,38h17v-2H27V38z M33,34h11v-2
						H33V34z M29,34h2v-2h-2V34z M28,19h23v-2H28V19z M28,15h23v-2H28V15z M34,11h17V9H34V11z M30,11h2V9h-2V11z M56,54H39.4
						l-1.7,1.7C37.5,55.9,37.3,56,37,56H23c-0.3,0-0.5-0.1-0.7-0.3L20.6,54H4v2c0,1.1,0.9,2,2,2h48c1.1,0,2-0.9,2-2V54z M8.1,38.1
						C7.4,37.2,7,36.1,7,35c0-2.8,2.2-5,5-5c2.8,0,5,2.2,5,5c0,1.1-0.4,2.2-1.1,3.1c2.4,0.4,4.1,2.5,4.1,4.9v1c1.3-1.7,2-3.8,2-6
						c0-5.5-4.5-10-10-10c-2.2,0-4.3,0.7-6,2c-4.4,3.3-5.3,9.6-2,14v-1C4,40.6,5.7,38.5,8.1,38.1L8.1,38.1z M8,26.7
						c1-0.3,2-0.6,3-0.6V18c0-0.6,0.4-1,1-1h11v-3H10c-1.1,0-2,0.9-2,2V26.7z M23,29c0,0-0.1,0-0.1,0c-0.5-0.1-0.9-0.6-0.8-1.1
						l1-6.9V19H13v7.1c2.6,0.2,5.1,1.3,7,3c4.9,4.4,5.3,12,0.9,16.9H47V28H30.1l-6.9,1C23.1,29,23,29,23,29L23,29z M8,52h13
						c0.3,0,0.5,0.1,0.7,0.3l1.7,1.7h13.2l1.7-1.7c0.2-0.2,0.4-0.3,0.7-0.3h13V28h-3v19c0,0.6-0.4,1-1,1H18.6
						c-3.1,2.1-7.1,2.6-10.6,1.3V52z M12,38c1.7,0,3-1.3,3-3s-1.3-3-3-3c-1.7,0-3,1.3-3,3S10.3,38,12,38L12,38z M9,40
						c-1.7,0-3,1.3-3,3v3c0.6,0.5,1.3,0.9,2,1.2V44h2v3.8c1.3,0.3,2.7,0.3,4,0V44h2v3.2c0.7-0.3,1.4-0.7,2-1.2v-3c0-1.7-1.3-3-3-3H9
						z M24.2,26.8l5.7-0.8c0,0,0.1,0,0.1,0h22c1.1,0,2-0.9,2-2V8c0-1.1-0.9-2-2-2H27c-1.1,0-2,0.9-2,2v13c0,0,0,0.1,0,0.1L24.2,26.8
						z M58,53v3c0,2.2-1.8,4-4,4H6c-2.2,0-4-1.8-4-4v-3c0-0.6,0.4-1,1-1h3v-3.6c-1.8-1.1-3.3-2.6-4.4-4.4C-1.7,38.2,0.3,30.9,6,27.6
						V16c0-2.2,1.8-4,4-4h13V8c0-2.2,1.8-4,4-4h25c2.2,0,4,1.8,4,4v16c0,1.4-0.8,2.7-2,3.4V52h3C57.6,52,58,52.4,58,53L58,53z
						 M29,52h2v-2h-2V52z"/>
				</g>
			</g>
		</g>
	</g>
</g>
</svg>
