<?xml version="1.0" encoding="UTF-8"?>
<svg width="60px" height="60px" viewBox="0 0 60 60" version="1.1" xmlns="http://www.w3.org/2000/svg" xmlns:xlink="http://www.w3.org/1999/xlink">
    <!-- Generator: Sketch 57.1 (83088) - https://sketch.com -->
    <title>icon / optymalizacja</title>
    <desc>Created with Sketch.</desc>
    <defs>
        <polygon id="path-1" points="0.0002 0 60 0 60 59.9998 0.0002 59.9998"></polygon>
    </defs>
    <g id="Page-1" stroke="none" stroke-width="1" fill="none" fill-rule="evenodd">
        <g id="BrandHub-index-1" transform="translate(-1363.000000, -4311.000000)">
            <g id="Group-21" transform="translate(1363.000000, 4298.000000)">
                <g id="icon-/-optymalizacja" transform="translate(0.000000, 13.000000)">
                    <g id="Group-3">
                        <mask id="mask-2" fill="white">
                            <use xlink:href="#path-1"></use>
                        </mask>
                        <g id="Clip-2"></g>
                        <path d="M33.7002,39.2898 C33.8872,39.4788 33.9942,39.7338 34.0002,39.9998 C34.0032,40.2688 33.8942,40.5248 33.7002,40.7098 C33.4142,40.9898 32.9892,41.0718 32.6202,40.9198 C32.4982,40.8718 32.3862,40.8008 32.2902,40.7098 C32.1012,40.5218 31.9972,40.2668 32.0002,39.9998 C31.9962,39.8688 32.0232,39.7388 32.0802,39.6198 C32.1312,39.4988 32.2012,39.3878 32.2902,39.2898 C32.3372,39.2478 32.3872,39.2068 32.4392,39.1698 C32.4952,39.1318 32.5552,39.1018 32.6202,39.0798 C32.6772,39.0508 32.7372,39.0308 32.8002,39.0188 C32.9292,38.9898 33.0612,38.9898 33.1902,39.0188 C33.2562,39.0288 33.3202,39.0498 33.3802,39.0798 C33.4412,39.0998 33.4992,39.1298 33.5502,39.1698 C33.6052,39.2018 33.6562,39.2428 33.7002,39.2898 L33.7002,39.2898 Z M21.7102,32.2898 C21.8922,32.4818 21.9962,32.7348 22.0002,32.9998 C21.9982,33.1308 21.9712,33.2598 21.9202,33.3798 C21.8292,33.6308 21.6312,33.8288 21.3802,33.9198 C21.1372,34.0268 20.8622,34.0268 20.6202,33.9198 C20.4992,33.8698 20.3872,33.7988 20.2902,33.7098 C20.2022,33.6098 20.1282,33.4988 20.0692,33.3798 C20.0212,33.2588 19.9982,33.1298 20.0002,32.9998 C20.0032,32.7348 20.1072,32.4818 20.2902,32.2898 C20.3862,32.1998 20.4972,32.1278 20.6202,32.0798 C20.9922,31.9238 21.4222,32.0058 21.7102,32.2898 L21.7102,32.2898 Z M28.9202,34.6198 C29.0212,34.8628 29.0222,35.1358 28.9232,35.3798 C28.7152,35.8918 28.1322,36.1378 27.6202,35.9298 C27.5002,35.8728 27.3892,35.7978 27.2902,35.7098 C27.1012,35.5218 26.9972,35.2658 27.0002,34.9998 C27.0012,34.8698 27.0292,34.7398 27.0802,34.6198 C27.1282,34.4978 27.2002,34.3858 27.2902,34.2898 C27.3372,34.2478 27.3872,34.2068 27.4392,34.1698 C27.4952,34.1318 27.5552,34.1018 27.6202,34.0798 C27.6772,34.0508 27.7372,34.0308 27.8002,34.0188 C27.9312,33.9898 28.0682,33.9898 28.2002,34.0188 C28.2632,34.0308 28.3232,34.0508 28.3802,34.0798 C28.4442,34.1018 28.5042,34.1318 28.5602,34.1698 C28.6122,34.2068 28.6622,34.2468 28.7102,34.2898 C28.7982,34.3868 28.8692,34.4988 28.9202,34.6198 L28.9202,34.6198 Z M14.9202,34.6198 C14.9712,34.7398 14.9982,34.8698 15.0002,34.9998 C15.0002,35.5528 14.5522,35.9998 14.0002,35.9998 C13.4482,35.9998 13.0002,35.5528 13.0002,34.9998 C13.0012,34.8698 13.0292,34.7398 13.0802,34.6198 C13.1312,34.4988 13.2012,34.3868 13.2902,34.2898 C13.3862,34.1998 13.4972,34.1278 13.6202,34.0798 C13.8022,33.9998 14.0052,33.9778 14.2002,34.0188 C14.2632,34.0308 14.3232,34.0508 14.3802,34.0798 C14.4442,34.1018 14.5042,34.1318 14.5602,34.1698 C14.6122,34.2068 14.6622,34.2468 14.7102,34.2898 C14.7982,34.3868 14.8692,34.4988 14.9202,34.6198 L14.9202,34.6198 Z M9.9202,39.6198 C10.0272,39.8688 10.0272,40.1508 9.9202,40.3998 C9.7042,40.9028 9.1222,41.1358 8.6202,40.9198 C8.4992,40.8698 8.3872,40.7988 8.2902,40.7098 C8.1032,40.5208 7.9992,40.2658 8.0002,39.9998 C7.9962,39.8688 8.0242,39.7388 8.0802,39.6198 C8.1312,39.4988 8.2012,39.3878 8.2902,39.2898 C8.3372,39.2478 8.3872,39.2068 8.4392,39.1698 C8.4952,39.1318 8.5552,39.1018 8.6202,39.0798 C8.6772,39.0508 8.7372,39.0308 8.8002,39.0188 C9.1292,38.9538 9.4702,39.0558 9.7102,39.2898 C9.7982,39.3878 9.8692,39.4988 9.9202,39.6198 L9.9202,39.6198 Z M37.9342,39.6468 C38.1302,40.1638 37.8702,40.7408 37.3532,40.9358 C36.8362,41.1318 36.2592,40.8708 36.0642,40.3538 C34.4242,36.0978 31.0602,32.7338 26.8042,31.0938 C18.4842,27.8878 9.1402,32.0338 5.9352,40.3538 C5.7402,40.8708 5.1622,41.1318 4.6462,40.9358 C4.6452,40.9358 4.6452,40.9358 4.6442,40.9358 C4.1282,40.7398 3.8682,40.1628 4.0642,39.6458 C5.0052,37.1968 6.4662,34.9808 8.3472,33.1508 C15.5272,26.1668 27.0092,26.3258 33.9932,33.5048 C34.0512,33.5508 34.1032,33.6028 34.1492,33.6608 C35.8012,35.3818 37.0882,37.4178 37.9342,39.6468 L37.9342,39.6468 Z M58.0002,23.9298 L53.9002,23.9298 C53.4612,23.9298 53.0732,24.2158 52.9442,24.6358 C52.6822,25.4808 52.3412,26.2998 51.9252,27.0808 C51.7192,27.4698 51.7912,27.9478 52.1032,28.2578 L55.0002,31.1508 L50.1512,35.9998 L47.2572,33.0998 C46.9462,32.7888 46.4692,32.7158 46.0802,32.9218 C45.2992,33.3378 44.4802,33.6798 43.6352,33.9408 C43.2152,34.0698 42.9292,34.4578 42.9292,34.8968 L42.9292,38.9998 L42.0002,38.9998 L42.0002,31.8658 C48.2782,30.4848 52.2472,24.2758 50.8662,17.9978 C49.4842,11.7198 43.2752,7.7508 36.9982,9.1318 C31.6612,10.3058 27.8592,15.0358 27.8602,20.4998 C27.8602,20.6608 27.8702,20.8318 27.8772,20.9998 L21.0002,20.9998 L21.0002,17.0698 L25.1002,17.0698 C25.5392,17.0698 25.9272,16.7838 26.0562,16.3638 C26.3182,15.5188 26.6592,14.6998 27.0752,13.9188 C27.2812,13.5308 27.2092,13.0538 26.8982,12.7428 L23.9982,9.8428 L28.8492,4.9998 L31.7432,7.8998 C32.0542,8.2118 32.5312,8.2838 32.9202,8.0778 C33.7012,7.6618 34.5192,7.3208 35.3652,7.0588 C35.7852,6.9298 36.0712,6.5398 36.0702,6.0998 L36.0702,1.9998 L42.9292,1.9998 L42.9292,6.0998 C42.9292,6.5398 43.2172,6.9268 43.6362,7.0558 C44.4812,7.3178 45.3002,7.6588 46.0812,8.0748 C46.4692,8.2818 46.9472,8.2108 47.2582,7.8998 L50.1512,4.9998 L55.0002,9.8488 L52.0992,12.7428 C51.7882,13.0538 51.7162,13.5308 51.9222,13.9198 C52.3382,14.7008 52.6792,15.5198 52.9412,16.3648 C53.0702,16.7848 53.4582,17.0708 53.8962,17.0708 L58.0002,17.0708 L58.0002,23.9298 Z M54.0002,39.0498 L54.0002,42.9498 L51.5992,42.9498 C51.1562,42.9498 50.7662,43.2418 50.6402,43.6668 C50.4802,44.2088 50.2652,44.7328 50.0002,45.2328 C49.7952,45.6208 49.8672,46.0978 50.1782,46.4068 L51.8662,48.1008 L49.0992,50.8658 L47.4082,49.1728 C47.0962,48.8638 46.6202,48.7938 46.2332,48.9998 C45.7332,49.2678 45.2092,49.4828 44.6672,49.6458 C44.2422,49.7708 43.9502,50.1618 43.9502,50.6048 L43.9502,52.9998 L42.0002,52.9998 L42.0002,47.9998 C45.3102,48.0028 47.9972,45.3208 48.0002,42.0098 C48.0022,39.8368 46.8272,37.8318 44.9292,36.7718 L44.9292,35.6198 C45.4102,35.4458 45.8852,35.2478 46.3512,35.0268 L49.4432,38.1268 C49.6312,38.3148 49.8862,38.4208 50.1512,38.4208 C50.3182,38.4158 50.4812,38.3698 50.6252,38.2838 C50.6252,38.2978 50.6362,38.3128 50.6392,38.3268 C50.7622,38.7558 51.1552,39.0508 51.6002,39.0508 L54.0002,39.0498 Z M42.0002,40.9998 L43.9292,40.9998 C44.4822,40.9998 44.9292,40.5528 44.9292,39.9998 L44.9292,39.2778 C46.4332,40.8968 46.3402,43.4278 44.7212,44.9318 C43.9812,45.6178 43.0102,45.9998 42.0002,45.9998 L42.0002,40.9998 Z M39.0002,20.9998 L29.8782,20.9998 C29.8692,20.8288 29.8601984,20.6588 29.8601984,20.4998 C29.8572,15.1758 34.1712,10.8578 39.4952,10.8547984 C44.8182,10.8518 49.1372,15.1658 49.1392023,20.4898 C49.1422,24.8528 46.2142,28.6738 42.0002,29.8048 L42.0002,23.9998 C42.0002,22.3428 40.6572,20.9998 39.0002,20.9998 L39.0002,20.9998 Z M40.0002,47.9998 L24.8582,47.9998 C24.7362,47.5238 24.5272,47.0748 24.2422,46.6748 L31.7672,37.6388 C32.1122,37.2068 32.0412,36.5778 31.6092,36.2338 C31.1902,35.8998 30.5822,35.9558 30.2312,36.3598 L22.7052,45.3998 C20.7402,44.4468 18.3732,45.2678 17.4202,47.2318 C17.3012,47.4778 17.2082,47.7348 17.1422,47.9998 L2.0002,47.9998 L2.0002,23.9998 C2.0002,23.4478 2.4482,22.9998 3.0002,22.9998 L39.0002,22.9998 C39.5532,22.9998 40.0002,23.4478 40.0002,23.9998 L40.0002,47.9998 Z M19.0002,48.9998 C19.0002,47.8948 19.8952,46.9998 21.0002,46.9998 C22.1042,46.9998 23.0002,47.8948 23.0002,48.9998 C23.0002,50.1038 22.1042,50.9998 21.0002,50.9998 C19.8952,50.9998 19.0002,50.1038 19.0002,48.9998 L19.0002,48.9998 Z M40.0002,56.9998 C40.0002,57.5528 39.5532,57.9998 39.0002,57.9998 L3.0002,57.9998 C2.4482,57.9998 2.0002,57.5528 2.0002,56.9998 L2.0002,49.9998 L17.1422,49.9998 C17.6842,52.1308 19.8512,53.4188 21.9822,52.8758 C23.3952,52.5168 24.4982,51.4128 24.8582,49.9998 L40.0002,49.9998 L40.0002,56.9998 Z M19.0002,18.5448 L19.0002,20.9998 L13.1422,20.9998 C13.5962,19.2398 15.1812,18.0068 17.0002,17.9998 C17.7032,17.9998 18.3942,18.1878 19.0002,18.5448 L19.0002,18.5448 Z M5.0002,19.0498 L7.4002,19.0498 C7.8432,19.0498 8.2332,18.7578 8.3592,18.3328 C8.5202,17.7908 8.7352,17.2668 9.0002,16.7668 C9.2042,16.3788 9.1322,15.9028 8.8222,15.5928 L7.1342,13.8998 L9.9002,11.1338 L11.5922,12.8268 C11.9032,13.1358 12.3802,13.2068 12.7672,12.9998 C13.2662,12.7328 13.7912,12.5168 14.3332,12.3538 C14.7582,12.2288 15.0502,11.8378 15.0502,11.3948 L15.0502,8.9998 L18.9502,8.9998 L18.9502,11.3998 C18.9502,11.8428 19.2422,12.2338 19.6672,12.3588 C20.2092,12.5198 20.7332,12.7348 21.2332,12.9998 C21.6212,13.2048 22.0972,13.1328 22.4072,12.8218 L23.2802,11.9488 L24.9732,13.6418 C24.7522,14.1088 24.5542,14.5838 24.3802,15.0648 L20.0002,15.0648 C19.4482,15.0648 19.0002,15.5128 19.0002,16.0648 L19.0002,16.3398 C15.8842,15.2328 12.4612,16.8618 11.3542,19.9778 C11.2362,20.3098 11.1482,20.6518 11.0902,20.9998 L5.0002,20.9998 L5.0002,19.0498 Z M59.0002,15.0698 L54.6202,15.0698 C54.4462,14.5888 54.2482,14.1158 54.0272,13.6478 L57.1272,10.5568 C57.5172,10.1668 57.5172,9.5338 57.1282,9.1428 C57.1282,9.1428 57.1272,9.1428 57.1272,9.1418 L50.8572,2.8718 C50.6702,2.6848 50.4152,2.5788 50.1502,2.5788 C49.8852,2.5798 49.6302,2.6858 49.4432,2.8728 L46.3512,5.9728 C45.8862,5.7508 45.4112,5.5538 44.9292,5.3798 L44.9292,0.9998 C44.9292,0.4478 44.4822,-0.0002 43.9292,-0.0002 L35.0702,-0.0002 C34.5172,-0.0002 34.0702,0.4478 34.0702,0.9998 L34.0702,5.3798 C33.5902,5.5538 33.1152,5.7518 32.6482,5.9728 L29.5572,2.8728 C29.3692,2.6858 29.1152,2.5798 28.8502,2.5788 C28.5852,2.5788 28.3302,2.6848 28.1432,2.8718 L21.8732,9.1418 C21.4892,9.5278 21.4842,10.1508 21.8632,10.5418 L21.4962,10.9078 C21.3142,10.8268 21.1332,10.7508 20.9502,10.6818 L20.9502,7.9998 C20.9502,7.4478 20.5022,6.9998 19.9502,6.9998 L14.0502,6.9998 C13.4972,6.9998 13.0502,7.4478 13.0502,7.9998 L13.0502,10.6838 C12.8672,10.7508 12.6852,10.8258 12.5042,10.9098 L10.6042,9.0098 C10.2132,8.6198 9.5802,8.6198 9.1902,9.0098 L5.0132,13.1928 C4.6222,13.5838 4.6222,14.2168 5.0132,14.6068 L6.9132,16.5068 C6.8312,16.6878 6.7562,16.8708 6.6872,17.0528 L4.0002,17.0528 C3.4482,17.0528 3.0002,17.5008 3.0002,18.0528 L3.0002,20.9998 C1.3432,20.9998 0.0002,22.3428 0.0002,23.9998 L0.0002,56.9998 C0.0002,58.6568 1.3432,59.9998 3.0002,59.9998 L39.0002,59.9998 C40.6572,59.9998 42.0002,58.6568 42.0002,56.9998 L42.0002,54.9998 L44.9502,54.9998 C45.5022,54.9998 45.9502,54.5528 45.9502,53.9998 L45.9502,51.3158 C46.1332,51.2498 46.3142,51.1738 46.4962,51.0898 L48.3962,52.9898 C48.7862,53.3808 49.4202,53.3808 49.8092,52.9898 L53.9912,48.8098 C54.3822,48.4188 54.3822,47.7858 53.9912,47.3948 L52.0912,45.4948 C52.1722,45.3128 52.2482,45.1318 52.3172,44.9488 L55.0002,44.9488 C55.5532,44.9488 56.0002,44.5018 56.0002,43.9488 L56.0002,38.0488 C56.0002,37.4968 55.5532,37.0488 55.0002,37.0488 L52.3192,37.0488 C52.2852,36.9578 52.2382,36.8718 52.2012,36.7818 L57.1272,31.8558 C57.5172,31.4658 57.5172,30.8328 57.1282,30.4418 L57.1272,30.4408 L54.0272,27.3498 C54.2492,26.8838 54.4462,26.4098 54.6202,25.9278 L59.0002,25.9278 C59.5532,25.9278 60.0002,25.4798 60.0002,24.9278 L60.0002,16.0698 C60.0002,15.5178 59.5532,15.0698 59.0002,15.0698 L59.0002,15.0698 Z" id="Fill-1" fill="#021E48" mask="url(#mask-2)"></path>
                    </g>
                </g>
            </g>
        </g>
    </g>
</svg>