<?xml version="1.0" encoding="utf-8"?>
<!-- Generator: Adobe Illustrator 24.2.3, SVG Export Plug-In . SVG Version: 6.00 Build 0)  -->
<svg version="1.1" id="Layer_1" xmlns="http://www.w3.org/2000/svg" xmlns:xlink="http://www.w3.org/1999/xlink" x="0px" y="0px"
	 viewBox="0 0 59 59" style="enable-background:new 0 0 59 59;" xml:space="preserve">
<style type="text/css">
	.st0{fill-rule:evenodd;clip-rule:evenodd;}
</style>
<desc>Created with Sketch.</desc>
<g id="Page-1">
	<g id="BrandHub-index-1" transform="translate(-257.000000, -4319.000000)">
		<g id="Group-15" transform="translate(257.000000, 4298.000000)">
			<g id="icon-_x2F_-audyt" transform="translate(0.000000, 21.000000)">
				<path id="Fill-1" class="st0" d="M26.6,7.9h7.9v-2h-7.9V7.9z M24.6,12.8h9.8v-2h-9.8V12.8z M40.3,22.6h4.9v-2h-4.9V22.6z
					 M26.6,22.6h11.8v-2H26.6V22.6z M37.4,17.7h7.9v-2h-7.9V17.7z M30.5,17.7h4.9v-2h-4.9V17.7z M26.6,17.7h2v-2h-2V17.7z M20.7,7.9
					h3.9v-2h-3.9V7.9z M57,30.5c-0.8-0.6-1.9-1-2.9-1h-3.9V17.7h3.9c1.6,0,2.9,1.3,2.9,2.9V30.5z M57,52.1c0,1.6-1.3,2.9-2.9,2.9
					H15.7V32.5c0-0.5-0.4-1-1-1l0,0v-2.3c1.3-0.3,2.5-0.9,3.6-1.6h12.3c1.5,0,3,0.6,4.1,1.7c1.4,1.4,3.4,2.3,5.4,2.3h13.9
					c1.6,0,2.9,1.3,2.9,2.9V52.1z M11.8,27.5c-5.4,0-9.8-4.4-9.8-9.8c0-5.4,4.4-9.8,9.8-9.8c5.4,0,9.8,4.4,9.8,9.8
					S17.2,27.5,11.8,27.5L11.8,27.5z M10.8,31.5v-2c0.3,0,0.7,0,1,0c0.3,0,0.7,0,1,0v2H10.8z M9.8,35.4h3.9v-2H9.8V35.4z M9.8,52.1
					h3.9V37.4H9.8V52.1z M13.8,55.1c0,1.1-0.9,2-2,2c-1.1,0-2-0.9-2-2v-1h3.9V55.1z M12.8,4.9c0-1.6,1.3-2.9,2.9-2.9h22
					c0.2,0,0.4,0,0.6,0.1v6.8c0,1.6,1.3,2.9,2.9,2.9h2.9v-2h-2.9c-0.5,0-1-0.4-1-1V3.4l7,7c0.6,0.6,0.9,1.3,0.9,2.1v17.1h-8
					c-1.5,0-3-0.6-4.1-1.7c-1.4-1.4-3.4-2.3-5.4-2.3H20.6c4.3-4.8,3.9-12.3-0.9-16.7c-1.9-1.7-4.3-2.8-6.9-3V4.9z M54.1,15.7h-3.9
					v-3.3c0-1.3-0.5-2.6-1.4-3.5l-7.5-7.5C40.3,0.5,39,0,37.7,0h-22c-2.7,0-4.9,2.2-4.9,4.9v1C4.3,6.5-0.5,12.2,0,18.7
					c0.4,5,4,9.2,8.8,10.4v2.3c-0.5,0-1,0.4-1,1l0,0v22.6c0,2.2,1.8,3.9,3.9,3.9c1.4,0,2.7-0.7,3.4-2h38.9c2.7,0,4.9-2.2,4.9-4.9
					V20.7C59,17.9,56.8,15.7,54.1,15.7L54.1,15.7z"/>
			</g>
		</g>
	</g>
</g>
</svg>
