<?xml version="1.0" encoding="utf-8"?>
<!-- Generator: Adobe Illustrator 24.2.3, SVG Export Plug-In . SVG Version: 6.00 Build 0)  -->
<svg version="1.1" id="Layer_1" xmlns="http://www.w3.org/2000/svg" xmlns:xlink="http://www.w3.org/1999/xlink" x="0px" y="0px"
	 viewBox="0 0 40 60" style="enable-background:new 0 0 40 60;" xml:space="preserve">
<style type="text/css">
	.st0{fill-rule:evenodd;clip-rule:evenodd;}
</style>
<desc>Created with Sketch.</desc>
<g id="Page-1">
	<g id="BrandHub-index-1" transform="translate(-447.000000, -4313.000000)">
		<g id="Group-16" transform="translate(447.000000, 4298.000000)">
			<g id="icon-_x2F_-zmiany" transform="translate(0.000000, 15.000000)">
				<path id="Fill-1" class="st0" d="M14,18h20v-2H14V18z M6,18h6v-2H6V18z M30,22h4v-2h-4V22z M18,22h10v-2H18V22z M6,22h10v-2H6
					V22z M6,30h28v-2H6V30z M10,26h24v-2H10V26z M6,26h2v-2H6V26z M18,54h16v-2H18V54z M10,54h6v-2h-6V54z M6,54h2v-2H6V54z M32,50
					h2v-2h-2V50z M14,50h16v-2H14V50z M6,50h6v-2H6V50z M6,46h28v-2H6V46z M30,42h4v-2h-4V42z M16,42h12v-2H16V42z M6,42h8v-2H6V42z
					 M18,38h16v-2H18V38z M14,38h2v-2h-2V38z M6,38h6v-2H6V38z M22,34h12v-2H22V34z M16,34h4v-2h-4V34z M6,34h8v-2H6V34z M38,57
					c0,0.6-0.4,1-1,1H3c-0.6,0-1-0.4-1-1V9c0-0.6,0.4-1,1-1h6v5c0,0.6,0.4,1,1,1h20c0.6,0,1-0.4,1-1V8h6c0.6,0,1,0.4,1,1V57z M11,12
					h18V6H11V12z M17,4h6V2h-6V4z M37,6h-6V5c0-0.6-0.4-1-1-1h-5V1c0-0.6-0.4-1-1-1h-8c-0.6,0-1,0.4-1,1v3h-5C9.4,4,9,4.4,9,5v1H3
					C1.3,6,0,7.3,0,9v48c0,1.7,1.3,3,3,3h34c1.7,0,3-1.3,3-3V9C40,7.3,38.7,6,37,6L37,6z"/>
			</g>
		</g>
	</g>
</g>
</svg>
