<?xml version="1.0" encoding="utf-8"?>
<!-- Generator: Adobe Illustrator 24.2.3, SVG Export Plug-In . SVG Version: 6.00 Build 0)  -->
<svg version="1.1" id="Layer_1" xmlns="http://www.w3.org/2000/svg" xmlns:xlink="http://www.w3.org/1999/xlink" x="0px" y="0px"
	 viewBox="0 0 60 49" style="enable-background:new 0 0 60 49;" xml:space="preserve">
<style type="text/css">
	.st0{fill-rule:evenodd;clip-rule:evenodd;}
</style>
<desc>Created with Sketch.</desc>
<g id="Page-1">
	<g id="BrandHub-index-1" transform="translate(-994.000000, -4319.000000)">
		<g id="Group-19" transform="translate(994.000000, 4298.000000)">
			<g id="icon-_x2F_-harmonogram" transform="translate(0.000000, 21.000000)">
				<path id="Fill-1" class="st0" d="M24,26h5v-2h-5V26z M18,22h11v-2H18V22z M29,45h2v-2h-2V45z M37,45h2v-2h-2V45z M33,45h2v-2h-2
					V45z M46,41h2v-2h-2V41z M46,43h2v5c0,0.6-0.4,1-1,1H11c-0.6,0-1-0.4-1-1v-4h2v3h34V43z M16,38h2v-2h-2V38z M12,38h2v-2h-2V38z
					 M8,38h2v-2H8V38z M4,38h2v-2H4V38z M16,34h2v-2h-2V34z M12,34h2v-2h-2V34z M8,34h2v-2H8V34z M4,34h2v-2H4V34z M2,40h18V30H2V40
					z M2,26h4v1h2v-1h6v1h2v-1h4v2H2V26z M22,40V26c0-1.1-0.9-2-2-2h-4v-1h-2v1H8v-1H6v1H2c-1.1,0-2,0.9-2,2v14c0,1.1,0.9,2,2,2h18
					C21.1,42,22,41.1,22,40L22,40z M39,26h14v-2H39V26z M39,22h14v-2H39V22z M39,18h14v-2H39V18z M39,14h14v-2H39V14z M39,10h6V8h-6
					V10z M47,10h6V8h-6V10z M60,3v33c0,0.6-0.4,1-1,1H38v-2h20V3H60z M15,18h14v-2H15V18z M15,14h14v-2H15V14z M21,10h8V8h-8V10z
					 M15,10h4V8h-4V10z M8,21h2V3H8V21z M24,37h6v-2h-6V37z M33,4h2v31c0,0.6-0.4,1-1,1s-1-0.4-1-1V4z M37,32h18V2H37V32z M13,2h18
					v30h-7v2h7v1c0,1.7,1.3,3,3,3s3-1.3,3-3v-1h19c0.6,0,1-0.4,1-1V1c0-0.6-0.4-1-1-1H36c-0.6,0-1,0.4-1,1v1h-2V1c0-0.6-0.4-1-1-1
					H12c-0.6,0-1,0.4-1,1v20h2V2z"/>
			</g>
		</g>
	</g>
</g>
</svg>
