<?xml version="1.0" encoding="utf-8"?>
<!-- Generator: Adobe Illustrator 24.2.3, SVG Export Plug-In . SVG Version: 6.00 Build 0)  -->
<svg version="1.1" id="Layer_1" xmlns="http://www.w3.org/2000/svg" xmlns:xlink="http://www.w3.org/1999/xlink" x="0px" y="0px"
	 viewBox="0 0 56 60" style="enable-background:new 0 0 56 60;" xml:space="preserve">
<style type="text/css">
	.st0{filter:url(#Adobe_OpacityMaskFilter);}
	.st1{fill-rule:evenodd;clip-rule:evenodd;fill:#FFFFFF;}
	.st2{mask:url(#mask-2_1_);fill-rule:evenodd;clip-rule:evenodd;}
</style>
<desc>Created with Sketch.</desc>
<g id="Page-1">
	<g id="BrandHub-index-1" transform="translate(-1181.000000, -4313.000000)">
		<g id="Group-20" transform="translate(1181.000000, 4298.000000)">
			<g id="icon-_x2F_-wdrozenie" transform="translate(0.000000, 15.000000)">
				<g id="Group-3">
					<g id="Clip-2">
					</g>
					<defs>
						<filter id="Adobe_OpacityMaskFilter" filterUnits="userSpaceOnUse" x="0" y="0" width="56" height="60">
							<feColorMatrix  type="matrix" values="1 0 0 0 0  0 1 0 0 0  0 0 1 0 0  0 0 0 1 0"/>
						</filter>
					</defs>
					<mask maskUnits="userSpaceOnUse" x="0" y="0" width="56" height="60" id="mask-2_1_">
						<g class="st0">
							<polygon id="path-1_1_" class="st1" points="0,0 56,0 56,60 0,60 							"/>
						</g>
					</mask>
					<path id="Fill-1" class="st2" d="M15.4,6.3l3.9,2.8c0.3,0.2,0.8,0.2,1.1,0c1.2-0.7,2.6-1.3,4-1.7c0.4-0.1,0.7-0.4,0.7-0.8
						L25.8,2h4.3l0.8,4.7c0.1,0.4,0.4,0.7,0.7,0.8c1.4,0.4,2.8,0.9,4,1.7c0.3,0.2,0.8,0.2,1.1,0l3.9-2.8l3,3l-2.8,3.9
						c-0.2,0.3-0.2,0.8,0,1.1c0.7,1.2,1.3,2.6,1.7,4c0.1,0.4,0.4,0.7,0.8,0.7l4.7,0.8v4.3l-4.7,0.8c-0.4,0.1-0.7,0.4-0.8,0.7
						c-0.4,1.4-0.9,2.8-1.7,4c-0.2,0.3-0.2,0.8,0,1.1l2.8,3.9l-3,3l-3.8-2.7c-0.3-0.2-0.8-0.3-1.1,0c-1.2,0.7-2.6,1.3-4,1.7
						c-0.4,0.1-0.7,0.4-0.7,0.8L30.2,42h-4.3l-0.8-4.7c-0.1-0.4-0.4-0.7-0.7-0.8c-1.4-0.4-2.8-0.9-4-1.7c-0.3-0.2-0.8-0.2-1.1,0
						l-3.9,2.8l-3-3l2.8-3.9c0.2-0.3,0.2-0.8,0-1.1c-0.7-1.2-1.3-2.6-1.7-4c-0.1-0.4-0.4-0.7-0.8-0.7L8,24.2v-4.3l4.7-0.8
						c0.4-0.1,0.7-0.4,0.8-0.7c0.4-1.4,0.9-2.8,1.7-4c0.2-0.3,0.2-0.8,0-1.1l-2.8-3.9L15.4,6.3z M13.1,13.9c-0.6,1.1-1,2.2-1.4,3.3
						L6.8,18C6.4,18.1,6,18.5,6,19v6c0,0.5,0.4,0.9,0.8,1l4.9,0.8c0.3,1.2,0.8,2.3,1.4,3.3l-2.9,4c-0.3,0.4-0.2,0.9,0.1,1.3l4.2,4.2
						c0.3,0.3,0.9,0.4,1.3,0.1l4-2.9c1.1,0.6,2.2,1,3.3,1.4l0.8,4.9c0.1,0.5,0.5,0.8,1,0.8h6c0.5,0,0.9-0.4,1-0.8l0.8-4.9
						c1.2-0.3,2.3-0.8,3.3-1.4l4,2.9c0.4,0.3,0.9,0.2,1.3-0.1l4.2-4.2c0.3-0.3,0.4-0.9,0.1-1.3l-2.9-4c0.6-1.1,1-2.2,1.4-3.3
						l4.9-0.8c0.5-0.1,0.8-0.5,0.8-1v-6c0-0.5-0.4-0.9-0.8-1l-4.9-0.8c-0.3-1.2-0.8-2.3-1.4-3.3l2.9-4c0.3-0.4,0.2-0.9-0.1-1.3
						l-4.2-4.2c-0.3-0.3-0.9-0.4-1.3-0.1l-4,2.9c-1.1-0.6-2.2-1-3.3-1.4L32,0.8C31.9,0.4,31.5,0,31,0h-6c-0.5,0-0.9,0.4-1,0.8
						l-0.8,4.9C22,6,20.9,6.5,19.9,7.1l-4-2.9c-0.4-0.3-0.9-0.2-1.3,0.1l-4.2,4.2C10,8.9,9.9,9.5,10.2,9.9L13.1,13.9z M31,16
						c0-1.1,0.9-2,2-2c0.8,0,1.5,0.5,1.8,1.2C33.2,15.7,32,17.3,32,19h2c0-1.1,0.9-2,2-2c1.1,0,2,0.9,2,2s-0.9,2-2,2v2
						c1.3,0,2.4-0.6,3.2-1.6c0.9,0.6,1.1,1.9,0.4,2.8c-0.2,0.3-0.5,0.5-0.8,0.7c-0.2-0.6-0.5-1.1-0.8-1.5l-1.5,1.3
						c0.7,0.7,0.7,1.8,0.1,2.6c-0.2-0.4-0.4-0.7-0.7-1.1l-1.4,1.4c0.8,0.8,0.8,2,0,2.8c-0.8,0.8-2,0.8-2.8,0C31.2,30,31,29.5,31,29
						V16z M33,33c2,0,3.7-1.5,4-3.5c1-0.5,1.7-1.5,1.9-2.6c2.1-0.5,3.5-2.6,3-4.8c-0.2-1.1-1-2.1-2-2.6c0.4-2.1-1-4-3.1-4.4
						c-0.5-2.2-2.6-3.5-4.8-3c-1.8,0.4-3.1,2-3.1,3.9v13C29,31.2,30.8,33,33,33L33,33z M16.2,22.2c0.1-0.3,0.4-0.6,0.7-0.8
						c0.8,1,1.9,1.6,3.2,1.6v-2c-1.1,0-2-0.9-2-2s0.9-2,2-2c1.1,0,2,0.9,2,2h2c0-1.7-1.2-3.3-2.8-3.8c0.5-1,1.6-1.5,2.6-1
						c0.7,0.3,1.2,1,1.2,1.8v13c0,1.1-0.9,2-2,2c-1.1,0-2-0.9-2-2c0-0.5,0.2-1,0.6-1.4l-1.4-1.4c-0.3,0.3-0.5,0.7-0.7,1.1
						c-0.6-0.8-0.6-1.8,0.1-2.6L18,23.3c-0.4,0.4-0.7,0.9-0.8,1.5C16.2,24.4,15.7,23.2,16.2,22.2L16.2,22.2z M14,23
						c0,1.9,1.3,3.5,3.1,3.9c0.2,1.1,1,2,1.9,2.6c0.3,2.2,2.2,3.8,4.4,3.5c2-0.2,3.5-1.9,3.5-4V16c0-2.2-1.8-4-4-4
						c-1.9,0-3.5,1.3-3.9,3.1c-2.1,0.4-3.4,2.4-3.1,4.4C14.8,20.2,14,21.6,14,23L14,23z M50,46h2v-2h-2V46z M18,42h3v-2h-3V42z
						 M35,42h3v-2h-3V42z M19,58h18v-2H19V58z M21.8,50h12.3l0.7,4H21.2L21.8,50z M51,6h-4v2h4c1.7,0,3,1.3,3,3v29H44v2h10v3
						c0,1.7-1.3,3-3,3H5c-1.7,0-3-1.3-3-3v-3h10v-2H2V11c0-1.7,1.3-3,3-3h4V6H5c-2.8,0-5,2.2-5,5v34c0,2.8,2.2,5,5,5h14.8l-0.7,4H18
						c-0.6,0-1,0.4-1,1v3h-4v2h30v-2h-4v-3c0-0.6-0.4-1-1-1h-1.2l-0.7-4H51c2.8,0,5-2.2,5-5V11C56,8.2,53.8,6,51,6L51,6z"/>
				</g>
			</g>
		</g>
	</g>
</g>
</svg>
