<?xml version="1.0" encoding="utf-8"?>
<!-- Generator: Adobe Illustrator 24.2.3, SVG Export Plug-In . SVG Version: 6.00 Build 0)  -->
<svg version="1.1" id="Layer_1" xmlns="http://www.w3.org/2000/svg" xmlns:xlink="http://www.w3.org/1999/xlink" x="0px" y="0px"
	 viewBox="0 0 60 60" style="enable-background:new 0 0 60 60;" xml:space="preserve">
<style type="text/css">
	.st0{filter:url(#Adobe_OpacityMaskFilter);}
	.st1{fill-rule:evenodd;clip-rule:evenodd;fill:#FFFFFF;}
	.st2{mask:url(#mask-2_1_);fill-rule:evenodd;clip-rule:evenodd;}
</style>
<desc>Created with Sketch.</desc>
<g id="Page-1">
	<g id="BrandHub-index-1" transform="translate(-813.000000, -4313.000000)">
		<g id="Group-18" transform="translate(813.000000, 4298.000000)">
			<g id="icon-_x2F_-strategia" transform="translate(0.000000, 15.000000)">
				<g id="Group-3">
					<g id="Clip-2">
					</g>
					<defs>
						<filter id="Adobe_OpacityMaskFilter" filterUnits="userSpaceOnUse" x="0" y="0" width="60" height="60">
							<feColorMatrix  type="matrix" values="1 0 0 0 0  0 1 0 0 0  0 0 1 0 0  0 0 0 1 0"/>
						</filter>
					</defs>
					<mask maskUnits="userSpaceOnUse" x="0" y="0" width="60" height="60" id="mask-2_1_">
						<g class="st0">
							<polygon id="path-1_1_" class="st1" points="0,0 60,0 60,60 0,60 							"/>
						</g>
					</mask>
					<path id="Fill-1" class="st2" d="M43,50c-3.9,0-7-3.1-7-7s3.1-7,7-7s7,3.1,7,7C50,46.9,46.9,50,43,50L43,50z M43,34
						c-5,0-9,4-9,9c0,5,4,9,9,9s9-4,9-9C52,38,48,34,43,34L43,34z M43,45c-1.1,0-2-0.9-2-2s0.9-2,2-2s2,0.9,2,2S44.1,45,43,45L43,45
						z M43,39c-2.2,0-4,1.8-4,4s1.8,4,4,4s4-1.8,4-4S45.2,39,43,39L43,39z M58,45h-3.4c-0.5,0-0.9,0.3-1,0.8c-0.3,1-0.7,1.9-1.2,2.8
						c-0.2,0.4-0.2,0.9,0.2,1.2l2.4,2.4L52.2,55l-2.4-2.4c-0.3-0.3-0.8-0.4-1.2-0.2c-0.9,0.5-1.8,0.9-2.8,1.2
						c-0.4,0.1-0.8,0.5-0.8,1V58h-4v-3.4c0-0.5-0.3-0.9-0.8-1c-1-0.3-1.9-0.6-2.8-1.2c-0.4-0.2-0.9-0.2-1.2,0.2L33.8,55L31,52.2
						l2.4-2.4c0.3-0.3,0.4-0.8,0.2-1.2c-0.5-0.9-0.9-1.8-1.2-2.8c-0.1-0.4-0.5-0.8-1-0.8H28v-4h3.4c0.5,0,0.9-0.3,1-0.8
						c0.3-1,0.7-1.9,1.2-2.8c0.2-0.4,0.2-0.9-0.2-1.2L31,33.8l2.8-2.8l2.4,2.4c0.3,0.3,0.8,0.4,1.2,0.2c0.9-0.5,1.8-0.9,2.8-1.2
						c0.4-0.1,0.8-0.5,0.8-1V28h4v3.4c0,0.5,0.3,0.9,0.8,1c1,0.3,1.9,0.7,2.8,1.2c0.4,0.2,0.9,0.2,1.2-0.2l2.4-2.4l2.8,2.8l-2.4,2.4
						c-0.3,0.3-0.4,0.8-0.2,1.2c0.5,0.9,0.9,1.8,1.2,2.8c0.1,0.4,0.5,0.8,1,0.8H58V45z M59,39h-3.6c-0.2-0.7-0.5-1.3-0.8-1.9
						l2.6-2.6c0.4-0.4,0.4-1,0-1.4l-4.2-4.2c-0.4-0.4-1-0.4-1.4,0l-2.6,2.6c-0.6-0.3-1.3-0.6-1.9-0.8V27c0-0.6-0.4-1-1-1h-6
						c-0.6,0-1,0.4-1,1v3.6c-0.7,0.2-1.3,0.5-1.9,0.8l-2.6-2.6c-0.4-0.4-1-0.4-1.4,0l-4.2,4.2c-0.4,0.4-0.4,1,0,1.4l2.6,2.6
						c-0.3,0.6-0.6,1.3-0.8,1.9H27c-0.6,0-1,0.4-1,1v6c0,0.6,0.4,1,1,1h3.6c0.2,0.7,0.5,1.3,0.8,1.9l-2.6,2.6c-0.4,0.4-0.4,1,0,1.4
						l4.2,4.2c0.4,0.4,1,0.4,1.4,0l2.6-2.6c0.6,0.3,1.3,0.6,1.9,0.8V59c0,0.6,0.4,1,1,1h6c0.6,0,1-0.4,1-1v-3.6
						c0.7-0.2,1.3-0.5,1.9-0.8l2.6,2.6c0.4,0.4,1,0.4,1.4,0l4.2-4.2c0.4-0.4,0.4-1,0-1.4L56,50.3V47h3c0.6,0,1-0.4,1-1v-6
						C60,39.4,59.6,39,59,39L59,39z M13,38V25.4l-1.3,1.3l-1.4-1.4l3-3c0.4-0.4,1-0.4,1.4,0l3,3l-1.4,1.4L15,25.4V38H13z M50.7,17.7
						L48.4,20l2.3,2.3l-1.4,1.4L47,21.4l-2.3,2.3l-1.4-1.4l2.3-2.3l-2.3-2.3l1.4-1.4l2.3,2.3l2.3-2.3L50.7,17.7z M35,16
						c0-1.1,0.9-2,2-2s2,0.9,2,2c0,1.1-0.9,2-2,2S35,17.1,35,16L35,16z M41,16c0-2.2-1.8-4-4-4s-4,1.8-4,4s1.8,4,4,4S41,18.2,41,16
						L41,16z M26.7,29.7L24.4,32l2.3,2.3l-1.4,1.4L23,33.4l-2.3,2.3l-1.4-1.4l2.3-2.3l-2.3-2.3l1.4-1.4l2.3,2.3l2.3-2.3L26.7,29.7z
						 M23.7,17.3l1,1l-1.4,1.4l-3-3c-0.4-0.4-0.4-1,0-1.4l3-3l1.4,1.4l-1.5,1.5c5.7,0.9,10.5,5,12.1,10.5l-1.9,0.6
						C32.1,21.7,28.4,18.3,23.7,17.3L23.7,17.3z M14,42c1.1,0,2,0.9,2,2s-0.9,2-2,2s-2-0.9-2-2S12.9,42,14,42L14,42z M14,48
						c2.2,0,4-1.8,4-4s-1.8-4-4-4s-4,1.8-4,4S11.8,48,14,48L14,48z M14,18c-1.1,0-2-0.9-2-2c0-1.1,0.9-2,2-2s2,0.9,2,2
						C16,17.1,15.1,18,14,18L14,18z M14,12c-2.2,0-4,1.8-4,4s1.8,4,4,4s4-1.8,4-4S16.2,12,14,12L14,12z M2,5c0-1.7,1.3-3,3-3h1v42H5
						c-1.1,0-2.1,0.4-3,1V5z M2,49c0-1.7,1.3-3,3-3h2c0.6,0,1-0.4,1-1V10h46v18h2V9c0-0.6-0.4-1-1-1H8V1c0-0.6-0.4-1-1-1H5
						C2.2,0,0,2.2,0,5v44c0,2.8,2.2,5,5,5h21v-2H5C3.3,52,2,50.7,2,49L2,49z"/>
				</g>
			</g>
		</g>
	</g>
</g>
</svg>
